<svg xmlns="http://www.w3.org/2000/svg" xmlns:xlink="http://www.w3.org/1999/xlink"><symbol id="icon-arrow" viewBox="0 0 14 24"><path d="M13.06 13.06a1.5 1.5 0 000-2.12L3.516 1.392a1.5 1.5 0 10-2.122 2.122L9.88 12l-8.486 8.485a1.5 1.5 0 102.122 2.122l9.546-9.546zM11 13.5h1v-3h-1v3z"/></symbol><symbol id="icon-arrow_down" viewBox="0 0 16 8"><path fill-rule="evenodd" clip-rule="evenodd" d="M7.867 7.86c-.255 0-.51-.087-.716-.26L.434 2.003A1.119 1.119 0 111.867.283l6.012 5.011 6.003-4.83a1.12 1.12 0 011.403 1.744L8.57 7.612a1.12 1.12 0 01-.702.248z"/></symbol><symbol id="icon-arrow_left" viewBox="0 0 14 24"><path d="M.94 10.94a1.5 1.5 0 000 2.12l9.545 9.547a1.5 1.5 0 102.122-2.122L4.12 12l8.486-8.485a1.5 1.5 0 10-2.122-2.122L.94 10.94zM3 10.5H2v3h1v-3z"/></symbol><symbol id="icon-basket" viewBox="0 0 23 23"><g clip-path="url(#clip0)"><path d="M15.867 6.473h1.94L14.93 1.537a.834.834 0 00-1.145-.3.834.834 0 00-.3 1.145l2.382 4.091zM9.28 2.382a.837.837 0 00-1.446-.846L4.957 6.478h1.94L9.28 2.382zM21.022 7.987H1.729c-.786 0-1.423.636-1.423 1.423v1.577c0 .787.637 1.423 1.423 1.423h.446l1.372 7.442c.173.877.973 1.573 1.805 1.573h11.765c.832 0 1.632-.696 1.804-1.573l1.382-7.446h.723c.787 0 1.423-.637 1.423-1.423V9.405a1.428 1.428 0 00-1.427-1.418zm-12.86 7.437v3.21c0 .459-.373.804-.805.804a.803.803 0 01-.805-.804V14.133c0-.46.373-.805.805-.805.459 0 .804.373.804.805v1.291zm2.581 0v3.21c0 .459-.372.804-.804.804a.803.803 0 01-.805-.804V14.133c0-.46.373-.805.805-.805.432 0 .804.373.804.805v1.291zm2.596 1.864v1.346a.803.803 0 01-.805.804.803.803 0 01-.804-.804v-4.5c0-.433.373-.806.804-.806.432 0 .805.346.805.805v3.155zm2.582 0v1.346a.803.803 0 01-.804.804.803.803 0 01-.805-.804v-4.5c0-.433.345-.806.805-.806.431 0 .804.346.804.805v3.155z"/></g><defs><clipPath id="clip0"><path transform="translate(.306 .201)" d="M0 0h22.143v22.143H0z"/></clipPath></defs></symbol><symbol id="icon-calendar" viewBox="0 0 15 15"><g clip-path="url(#clip0)"><path d="M14.909 2.346c0-.567-.46-1.026-1.026-1.026H12.15V.418A.418.418 0 0011.73 0h-.903a.42.42 0 00-.42.418v.903H4.65V.418A.418.418 0 004.231 0h-.843a.418.418 0 00-.419.418v.903H1.114C.548 1.32.09 1.78.09 2.346v3.655h.54v7.945c0 .583.472 1.055 1.055 1.055h11.571c.583 0 1.054-.472 1.054-1.055V6h.602l-.002-3.654zm-2.28 9.86c0 .583-.472 1.054-1.055 1.054h-8.15a1.054 1.054 0 01-1.055-1.054V6h10.26v6.206z"/><path d="M5.488 7.14h-1.68v1.74h1.68V7.14zM8.368 7.14h-1.68v1.74h1.68V7.14zM11.248 7.14h-1.68v1.74h1.68V7.14zM5.488 10.2h-1.68v1.74h1.68V10.2zM8.368 10.2h-1.68v1.74h1.68V10.2zM11.248 10.2h-1.68v1.74h1.68V10.2z"/></g><defs><clipPath id="clip0"><path d="M0 0h15v15H0z"/></clipPath></defs></symbol><symbol id="icon-cart" viewBox="0 0 32 31"><path fill-rule="evenodd" clip-rule="evenodd" d="M21.911 18.017h-9.84l-2.114-7.722h15.83l-3.876 7.722zm6.07-9.076a2.568 2.568 0 00-2.196-1.22H9.25L8.455 4.81a1.292 1.292 0 00-1.247-.948H4.625c-.715 0-1.292.576-1.292 1.286 0 .71.577 1.287 1.292 1.287H6.22l3.616 13.208c.153.56.664.948 1.246.948h11.625c.49 0 .937-.275 1.156-.711l4.232-8.433c.404-.805.36-1.74-.114-2.505zM10.438 23.164c-1.069 0-1.937.863-1.937 1.93s.868 1.93 1.938 1.93c1.069 0 1.937-.863 1.937-1.93s-.868-1.93-1.938-1.93zm10.98 1.93c0-1.067.868-1.93 1.937-1.93 1.07 0 1.938.863 1.938 1.93s-.868 1.93-1.938 1.93a1.934 1.934 0 01-1.937-1.93z"/><mask id="a" maskUnits="userSpaceOnUse" x="3" y="3" width="26" height="25"><path fill-rule="evenodd" clip-rule="evenodd" d="M21.911 18.017h-9.84l-2.114-7.722h15.83l-3.876 7.722zm6.07-9.076a2.568 2.568 0 00-2.196-1.22H9.25L8.455 4.81a1.292 1.292 0 00-1.247-.948H4.625c-.715 0-1.292.576-1.292 1.286 0 .71.577 1.287 1.292 1.287H6.22l3.616 13.208c.153.56.664.948 1.246.948h11.625c.49 0 .937-.275 1.156-.711l4.232-8.433c.404-.805.36-1.74-.114-2.505zM10.438 23.164c-1.069 0-1.937.863-1.937 1.93s.868 1.93 1.938 1.93c1.069 0 1.937-.863 1.937-1.93s-.868-1.93-1.938-1.93zm10.98 1.93c0-1.067.868-1.93 1.937-1.93 1.07 0 1.938.863 1.938 1.93s-.868 1.93-1.938 1.93a1.934 1.934 0 01-1.937-1.93z"/></mask><g mask="url(#a)"><path d="M.75 0h31v30.886h-31z"/></g></symbol><symbol id="icon-close" viewBox="0 0 23 23"><path fill-rule="evenodd" clip-rule="evenodd" d="M16.959 15.572l-4.23-4.254 4.254-4.231a1 1 0 10-1.41-1.418l-4.255 4.23-4.23-4.254a1 1 0 10-1.419 1.41L9.9 11.31l-4.254 4.23a1 1 0 101.41 1.419l4.255-4.231 4.23 4.254a1 1 0 101.419-1.41z"/></symbol><symbol id="icon-data" viewBox="0 0 42 38"><path d="M38.63.855H3.244A2.725 2.725 0 00.52 3.577v24.498a2.725 2.725 0 002.723 2.722h14.63v2.637a.68.68 0 001.361 0v-2.467h3.403v2.467a.68.68 0 001.361 0v-2.637H38.63a2.725 2.725 0 002.722-2.722V3.577c0-1.501-1.221-2.722-2.722-2.722zm1.361 27.22c0 .75-.61 1.361-1.361 1.361H3.244c-.75 0-1.362-.61-1.362-1.36v-24.5c0-.75.611-1.36 1.362-1.36H38.63c.75 0 1.361.61 1.361 1.36v24.5zm-8.877 9.22a.68.68 0 01-.852.447c-5.72-1.78-12.967-1.768-18.65 0a.68.68 0 01-.405-1.3c5.948-1.85 13.478-1.86 19.46 0a.68.68 0 01.447.852zm-3.082-23.743a2.161 2.161 0 00-2.152-1.93h-.843v-1.576a4.139 4.139 0 00-4.134-4.134 4.139 4.139 0 00-4.134 4.134v1.576h-.844c-1.107 0-2.032.83-2.151 1.93l-1.059 9.72a2.165 2.165 0 002.152 2.4h12.072c1.287 0 2.29-1.12 2.151-2.4l-1.058-9.72zM26.939 24.31H14.867a.802.802 0 01-.799-.89l1.059-9.721a.802.802 0 01.798-.716h.844v1.345a.68.68 0 101.36 0v-4.282a2.776 2.776 0 012.774-2.773 2.776 2.776 0 012.773 2.773v1.575h-3.534a.68.68 0 000 1.361h3.534v1.346a.68.68 0 001.36 0v-1.345h.844c.41 0 .754.307.799.716l1.058 9.72a.802.802 0 01-.798.891z"/></symbol><symbol id="icon-delivery" viewBox="0 0 16 14"><path d="M15.452 6.688h-.658l-.94-2.976a.551.551 0 00-.52-.394H11.74V.574A.562.562 0 0011.193 0H.548A.562.562 0 000 .574v10.058c0 .317.245.575.548.575h.53a2.678 2.678 0 00-.014.263c0 1.395 1.082 2.53 2.412 2.53 1.329 0 2.41-1.135 2.41-2.53 0-.09-.004-.177-.013-.264h4.786a2.697 2.697 0 00-.014.264c0 1.395 1.082 2.53 2.412 2.53 1.33 0 2.41-1.135 2.41-2.53 0-.09-.004-.177-.013-.264a.562.562 0 00.546-.574v-3.37a.562.562 0 00-.548-.574zm-2.514-2.22l.701 2.22h-1.898v-2.22h1.197zM3.476 12.85c-.726 0-1.316-.62-1.316-1.381s.59-1.38 1.316-1.38c.725 0 1.314.619 1.314 1.38 0 .761-.59 1.38-1.314 1.38zm7.17-2.794H5.474c-.434-.673-1.168-1.117-2-1.117-.83 0-1.565.444-1.999 1.117h-.38V1.15h9.55v8.908zm2.41 2.794c-.725 0-1.315-.62-1.315-1.381s.59-1.38 1.316-1.38c.725 0 1.315.619 1.315 1.38 0 .761-.59 1.38-1.315 1.38zm0-3.911c-.484 0-.936.152-1.315.411V7.837H14.904v2.01a2.363 2.363 0 00-1.847-.907z"/></symbol><symbol id="icon-dessert" viewBox="0 0 13 17"><path d="M12.012 10.43a.334.334 0 00-.262-.127h-.848l.167-.307a1.527 1.527 0 00-.028-1.524 1.527 1.527 0 00-1.324-.754h-.194a1.528 1.528 0 00-.197-1.03A1.527 1.527 0 008 5.932h-.39c.244-.305.391-.692.391-1.112 0-.867-.623-1.59-1.444-1.748.023-.509.191-1.758 1.253-2.258a.334.334 0 10-.285-.604C6.108.88 5.91 2.448 5.888 3.073A1.783 1.783 0 004.442 4.82c0 .42.147.807.392 1.112h-.421c-.55 0-1.045.282-1.325.754-.189.319-.254.68-.197 1.03h-.194c-.549 0-1.044.283-1.325.755a1.527 1.527 0 00-.027 1.524l.167.306H.664a.334.334 0 00-.325.411l1.411 5.97c.036.15.17.256.325.256h8.264c.155 0 .29-.106.325-.256l1.41-5.97c.024-.1.001-.204-.062-.284zm-5.79-6.721c.614 0 1.113.499 1.113 1.112a1.114 1.114 0 01-2.225 0c0-.613.499-1.112 1.112-1.112zm-2.56 3.32a.865.865 0 01.751-.428h3.588c.252 0 .483.105.647.286H6.93a.334.334 0 000 .668h1.94a.865.865 0 01-.03.163H3.574a.864.864 0 01.087-.69zM1.947 8.812a.865.865 0 01.75-.427h7.02c.31 0 .591.16.75.427.159.267.165.59.016.863l-.342.626H2.273l-.206-.378h2.125a.334.334 0 000-.668H1.824a.87.87 0 01.123-.443zm.392 7.459L1.086 10.97h2.827l.456 5.302h-2.03zm5.036 0H5.039l-.456-5.302h3.248l-.456 5.302zm2.7 0h-2.03l.456-5.302h2.827l-1.253 5.302z"/><path d="M5.545 9.257h-.184a.334.334 0 000 .668h.184a.334.334 0 000-.668z"/></symbol><symbol id="icon-drink" viewBox="0 0 11 19"><path d="M9.62 4.484H8.345l.632-3.022a.415.415 0 10-.813-.17l-.667 3.192H.877a.415.415 0 00-.414.431l.514 13.32a.415.415 0 00.415.4h7.714a.415.415 0 00.415-.4l.514-13.32a.415.415 0 00-.414-.431zM1.38 7.16l-.071-1.846h6.013L6.936 7.16H1.38zm7.327 10.645H1.791L1.412 7.99h7.674l-.379 9.815zM9.118 7.16H7.784l.386-1.846h1.02L9.117 7.16z"/><path d="M2.637 14.63a.415.415 0 00.4-.43l-.163-4.206a.415.415 0 00-.83.032l.163 4.206a.415.415 0 00.43.398zM2.661 15.24a.415.415 0 00-.399.43l.015.388a.415.415 0 10.83-.032l-.015-.388a.416.416 0 00-.431-.398z"/></symbol><symbol id="icon-env" viewBox="0 0 35 29"><path fill-rule="evenodd" clip-rule="evenodd" d="M3.37.056h28.26a3.14 3.14 0 013.139 3.14v21.979a3.14 3.14 0 01-3.14 3.14H3.371a3.14 3.14 0 01-3.14-3.14V3.196a3.14 3.14 0 013.14-3.14zm.001 10.39v14.728H31.63V10.446L17.5 17.511 3.371 10.446zm0-3.51L17.501 14 31.63 6.936v-3.74H3.37v3.74z"/></symbol><symbol id="icon-garnish" viewBox="0 0 15 17"><path d="M8.778.445C8.405.388 8.033.426 7.661.47c-.01.001-.016.007-.025.008C4.369-.186 1.53 3.352.526 6.237c-1.29 3.7-.22 8.115 3.543 9.66 3.939 1.616 8.073-.97 9.772-4.723 1.928-4.26-.313-10.002-5.063-10.729zm4.509 10.394c-1.43 3.451-5.245 5.827-8.804 4.535C.808 14.04.032 9.857 1.167 6.42a9.152 9.152 0 012.694-4.025c1.237-1.07 2.712-1.363 4.257-1.374 4.618.192 6.867 5.72 5.169 9.818z"/><path d="M9.701 2.454c-.655-.222-1.355-.283-2.04-.27a.237.237 0 00-.136.046c-6.35-.51-8.392 11.343-1.678 12.636 3.308.637 5.966-1.79 6.855-4.942.805-2.855-.02-6.461-3-7.47zM7.055 14.347c-3.217.135-4.974-2.688-4.759-5.755.224-3.185 2.342-5.388 5.25-5.91a.25.25 0 00.115.03c6.954.116 5.592 11.375-.606 11.635z"/><path d="M4.102 10.614c-.061-.002-.088-.042-.134-.077a.223.223 0 00-.14-.046c-.05-.002-.065.087-.012.094.11.016.151.144.27.16.094.014.11-.13.016-.131z"/><path d="M12.049 7.506c-.049-.116-.185-.257-.263-.346-.129-.146-.098-.401-.15-.583-.038-.14-.142-.241-.252-.335.2-.22.252-.52-.031-.885-.122-.158-.504-.381-.545-.575-.04-.186-.058-.321-.172-.472-.19-.253-.777-.1-1.027-.136a.126.126 0 00-.13.067.743.743 0 00-.326-.253.116.116 0 00-.017-.043 2.327 2.327 0 00-1.154-.964c-.054-.022-.135.002-.172.047-.183.224-.2.418-.267.664-.203-.013-.471-.04-.623.072-.14.105-.088.334-.163.482-.01.018-.123.021-.252.037-.003-.03-.02-.06-.055-.069-.506-.13-1.184-.229-1.5.327-.163.29-.138.413-.47.48-.162.033-.257.16-.328.303-.227.457-.973.871-.871 1.466.01.054.027.1.047.144a.465.465 0 00-.176.105c-.158.162-.133.385-.065.586-.225.134-.442.335-.511.598-.078.292.353.343.505.441.122.08.251-.1.152-.204a.962.962 0 00-.14-.12.955.955 0 00-.129-.067.387.387 0 00-.029-.021 1.17 1.17 0 01.424-.414.164.164 0 00.07-.18c-.044-.159-.162-.358.04-.416.043-.013.087-.023.13-.033.239.119.562.12.82.07.023.074.051.148.088.224.049.1.187.108.26.034a.93.93 0 01.253-.174l.004-.001c-.12.214-.245.42-.328.646-.489-.239-1.025-.126-1.244.54-.059.178-.297.324-.403.487a1.08 1.08 0 00-.16.586c0 .324.212.555.473.682a.71.71 0 00-.097.197c-.078.258.044.514.25.659.134.093.29.122.445.109-.053.255-.155.53-.084.776.07.247.35.267.582.25-.043.546.097 1.158.637 1.378.43.175.86-.016 1.155-.348.018.014.035.03.057.041.248.136.53.037.777-.107.055.165.219.295.549.344.697.105.849-.396.73-.897.16.235.411.382.766.341.499-.057.563-.502.827-.827.07-.085.172-.103.235-.202.058-.092.03-.223-.01-.34.388-.016.636-.277.85-.66.035-.061-.008-.164-.085-.155-.12.014-.176.053-.255.154-.213.276-.326.42-.703.382-.08-.009-.154.093-.126.17.09.247.095.277-.083.413-.164.125-.234.382-.37.53-.25.274-.546.24-.79 0-.231-.23-.256-.611-.212-.932.765-.057 1.475-.695 1.774-1.463.07.017.153.012.218.015.146.008.183-.174.114-.266.031-.105-.1-.212-.199-.123-.008.008-.019.013-.028.02.079-.384.052-.782-.125-1.144.006-.02.012-.04.011-.066-.013-.435.197-.661-.039-1.082-.01-.016-.025-.027-.039-.04.109-.146.228-.253.328-.366-.034.048-.04.112.017.168l.036.027c.022.08-.005.198-.017.265-.019.106-.048.21-.055.318-.005.077.064.135.132.138.228.008.457.006.685.006a.142.142 0 00.139-.144c-.006-.116-.119-.368-.04-.465a.172.172 0 00.035-.141c.005.008.01.016.018.023.508.467.473.987-.108 1.412-.098.071-.125.205-.038.3.24.26.082.51-.06.726-.092-.047-.188-.09-.284-.139-.065-.032-.163-.024-.198.054-.09.205-.11.508-.25.68-.12.145.082.357.203.21.143-.174.178-.4.248-.612.053.026.104.053.154.08.004.137.158.232.265.18.01.008.02.014.029.023-.033.168-.088.341-.277.338-.156-.003-.304-.023-.447.058-.124.07-.04.286.096.238.119-.043.255.013.377.014.156.002.3-.07.392-.202.123-.18.245-.492.073-.663-.026-.027-.055-.047-.083-.07.2-.398.387-.583.138-1.011.423-.366.695-.774.447-1.37zM9.544 6.28c.019-.434.116-.859.161-1.29.159.115.305.25.381.438.105.26.067.578.028.856-.18.036-.347-.016-.536-.007-.013 0-.024.004-.035.007V6.28zM6.84 4.614c.061.007.118-.039.15-.088a.981.981 0 00.17-.474l.001-.008c.154-.033.355-.005.5-.006.08-.001.13-.054.159-.125.046-.117.085-.583.333-.467.284.133.519.337.722.576a.534.534 0 00-.113.086 1.11 1.11 0 00-.294.563c-.02-.05-.069-.09-.122-.09-.235.002-.49-.044-.72.004-.082.017-.111.11-.088.183.036.223-.05.45-.001.668.066.293.449.29.672.291.048 0 .11-.029.13-.077.095-.232.062-.474.094-.709-.017.329.048.675.136.97-.231.105-.586.29-.567.557.019.252.205.393.4.512-.099.027-.198.049-.297.027a.12.12 0 00-.087.013c-.219-.227-.712-.667-1.027-.391a.464.464 0 00-.107.142c-.047-.022-.097-.05-.145-.06.004-.033-.035-.058-.063-.033-.02.019-.031.044-.051.06-.006.005-.008.012-.012.017.107-.445.21-.903.187-1.326-.005-.098-.13-.14-.18-.051-.052.09-.094.186-.132.286-.012-.019-.03-.033-.059-.031-.328.023-.73.276-.773.643-.043.348.241.63.532.764-.009.054-.017.109-.027.162-.477-.15-.815-.493-.631-1.064.18-.558.78-.866 1.31-.88.119-.003.155-.203.03-.223a1.681 1.681 0 00-.495 0c.068-.245.01-.468.465-.42zm1.317.249a1.003 1.003 0 00-.026.16c-.01.133.002.263-.03.39a.598.598 0 01-.238-.037c-.038-.017-.034-.025-.036-.077-.007-.146.001-.285-.01-.426.112.004.226-.004.34-.01zm-1.72.939c-.102.315-.159.665-.211 1.002-.137-.134-.27-.277-.286-.483-.02-.27.313-.398.497-.519zm-1.875.72c-.113-.026-.237.055-.233.184.003.104.013.202.027.297-.127-.002-.274-.003-.402-.035-.009-.063-.053-.12-.126-.114l-.08.006a.289.289 0 01-.07-.102c-.1-.261.414-.632.567-.756.128-.104.206-.377.283-.529.053-.103.347-.12.444-.144.057-.014.12-.07.13-.133.104-.66.557-.82 1.098-.826a.207.207 0 00-.067.063c-.129.209-.116.466-.13.705-.374.157-.682.46-.841.895-.07.192-.087.372-.064.536-.179-.008-.365-.008-.536-.047zm.17.622a1.328 1.328 0 01-.035-.276c.158-.02.323-.018.479-.028.024.052.052.102.084.15-.17-.026-.366.051-.528.154zm.312.878c.077-.248.2-.463.259-.718.002-.01.001-.019.001-.028.03-.01.06-.024.087-.042a.12.12 0 00.04-.045c.216.205.51.343.817.396.084.014.19-.022.207-.122.036-.2.086-.409.137-.62a.12.12 0 00.032.072c.055.05.12.091.191.124-.015.248.06.53.12.747-.245.217-.536.546-.47.898.062.321.31.45.585.507-.134.11-.228.233-.292.36-.323 0-.605-.008-.934-.164-.123-.058-.226-.11-.26-.206.004-.01.009-.02.012-.032.015-.043.005-.077-.018-.1.002-.01.002-.017.005-.027.043-.167.08-.297.092-.47.007-.1-.089-.197-.184-.191-.124.007-.253.007-.341-.033a1.694 1.694 0 00-.085-.081c-.026-.052-.032-.122 0-.225zM6.1 10.9c-.05.018-.099.04-.149.066-.118-.042-.238-.081-.35-.135-.264-.124-.09-.442-.004-.642.033-.076.02-.16-.052-.206-.209-.135-.369-.252-.181-.48l.009-.012c.394.232.838.452 1.285.414-.02.235.041.477.158.702-.074.008-.156-.006-.222-.012-.107-.008-.198.013-.301.024-.106.011-.198.084-.197.204 0 .027.003.05.004.077zm.39.023l.027-.007c.148-.03.308-.012.442-.077.038.053.08.103.123.152-.218-.004-.348.263-.543.343a.937.937 0 01-.042-.202 2.87 2.87 0 01-.009-.195l.002-.014zm-2.577.006a.396.396 0 01-.196-.06.241.241 0 01-.104-.124c.01.022-.011-.06-.01-.043a.397.397 0 01.002-.066c-.004.042.009-.027.011-.036l.003-.01.007-.014a.638.638 0 01.143-.206c.083-.086.176-.159.272-.227.007.02.02.036.042.04.106.025.199.016.305.01a.305.305 0 01.234.095c-.096.24-.232.464-.46.586a.478.478 0 01-.25.055zm2.135 2.01c-.192.267-.42.491-.782.39-.455-.126-.509-.799-.454-1.182.014-.099-.042-.236-.162-.22-.194.025-.478.11-.467-.166.007-.186.032-.368.034-.554l.047-.019c.345-.152.552-.542.657-.895.013-.045 0-.109-.036-.14-.123-.106-.249-.187-.412-.193a.881.881 0 00-.276.049c.025-.073-.033-.166-.122-.141-.182.05-.372.125-.526.241-.236-.167-.4-.374-.33-.694.07-.319.376-.473.499-.752.108-.247.256-.481.539-.499a.687.687 0 01.367.098c-.009.048-.016.097-.02.148-.005.058.037.14.09.163.195.087.37.125.563.149-.039.18-.094.347-.095.54v.003a.927.927 0 00-.204.364c-.057.234.149.41.328.537-.112.246-.217.559-.04.78.105.132.253.189.41.221-.171.152-.298.345-.297.56.003.455.385.643.752.757a1.318 1.318 0 00-.063.456zm1.783.316c-.02-.034-.036-.071-.031-.102a.926.926 0 00.01-.147c.058-.015.056-.113-.012-.113l-.004.002c-.058-.137-.266-.119-.28.057-.01.1.017.201.063.292-.12-.038-.15-.13-.13-.244a.092.092 0 00.015-.058c.067-.225.29-.515.432-.688.178.342.477.931-.063 1.001zm.351-.998a1.328 1.328 0 00-.173-.234c-.064-.068-.155-.02-.174.053-.312.172-.65.539-.745.872a2.18 2.18 0 01-.458.072.224.224 0 01-.148-.043c.042-.086.077-.174.102-.264.036-.134-.069-.212-.171-.201l.014-.088c.013-.08-.019-.157-.099-.181-.237-.07-.761-.265-.615-.616.077-.185.25-.303.42-.414.028.138.074.27.148.408.027.05.09.094.146.087a.796.796 0 00.42-.19c.114-.092.3-.216.363-.352.005-.012.005-.023.007-.035.048.044.096.086.147.124.267.203.548.303.826.323-.049.219-.054.457-.01.679zM9.72 8.489c.661 1.413-.926 3.558-2.265 2.209-.4-.404-.365-.759-.118-1.062.237.624.8 1.074 1.48.834.76-.269.954-1.243.772-1.96a.152.152 0 00-.052-.084c.008-.065-.04-.136-.123-.117-.238.053-.48.104-.722.162-.123-.156-.105-.41-.19-.588-.115-.244-.379-.17-.587-.092a.97.97 0 00-.322.19c-.091.087-.087.164-.056.284.025.097.087.18.148.255.05.062.137.12.152.201l.005.012a3.273 3.273 0 00-.56.29c-.002 0-.003-.002-.005-.003-.217-.07-.541-.183-.493-.48.04-.241.275-.432.442-.582.041-.038.054-.106.04-.16-.055-.207-.115-.45-.11-.677.091.006.18 0 .261-.02.056-.013.081-.063.079-.114.163.1.333.24.37.267.054.037.108.025.147-.01.008.005.015.01.026.014.113.032.223.04.34.02.279-.047.446-.115.493.28.011.093.064.158.158.164.283.018.568.012.85.01.065.177.03.341-.013.515-.102-.007-.2.127-.147.242zm-.427.085c0 .007-.002.013 0 .02.084.578.039 1.292-.563 1.553-.546.237-.965-.25-1.194-.71.474-.4 1.277-.69 1.757-.863zm-1.262.09c-.024-.178-.18-.295-.214-.47a1.1 1.1 0 01.48-.223c.101.16.101.377.184.553a5.91 5.91 0 00-.45.14zm1.644-1.355a.206.206 0 00-.03.074c-.166 0-.332.001-.498.008-.059-.198-.137-.38-.347-.45a.353.353 0 00-.105-.015c-.002-.003-.003-.006-.006-.008-.118-.12-.241-.238-.332-.382-.07-.11.419-.367.476-.403.075-.048.09-.137.054-.216a1.92 1.92 0 01-.077-1.355c.167-.525.458-.251.656.06a.15.15 0 00-.039.097c0 .524-.089 1.04-.09 1.562 0 .073.056.106.11.102a.165.165 0 00.06.165c.178.14.46.14.682.08-.05.283-.365.458-.514.681zm.7-2.006c-.13-.307-.384-.503-.651-.674a2.537 2.537 0 00-.117-.208c.422.048.99-.121.893.533-.012.085.008.16.082.209.221.142.409.29.546.522.092.155.067.262-.014.337-.063-.014-.136.025-.15.088-.163.063-.378.08-.51.087.03-.3.039-.616-.079-.894zm.304 2.399c.015-.118.038-.241.035-.358l.062.005c.063.003.176-.016.261-.003-.023.114.004.23.026.352-.128 0-.256.001-.384.004zm.653-.512c-.004-.006-.007-.013-.013-.019-.099-.087-.213-.107-.34-.113-.086-.004-.273.034-.347-.025a.142.142 0 00-.184.003.682.682 0 00.173-.416c.177-.032.356-.094.51-.181.127.16.246.288.197.646a.258.258 0 00.004.105z"/></symbol><symbol id="icon-hach" viewBox="0 0 17 11"><path d="M16.058 7.04a10.575 10.575 0 00-1.769-2.432 2.731 2.731 0 00-.68-1.52 4.107 4.107 0 00-2.497-1.302c-.007-.01-.01-.02-.017-.03A1.86 1.86 0 009.58.98H6.857a1.86 1.86 0 00-1.515.775c-.007.01-.01.02-.017.03A4.106 4.106 0 002.828 3.09c-.394.435-.614.969-.68 1.517A10.524 10.524 0 00.396 7.01a2.356 2.356 0 00.03 2.454c.429.685 1.236 1.09 2.052 1.09.28 0 .562-.047.83-.148l2.584-1.034c.329.104.67.168 1.019.168.062 0 .125-.015.187-.018.278.324.677.52 1.126.52.447 0 .845-.196 1.12-.52.059.003.118.017.176.017.347 0 .687-.065 1.018-.17l2.61 1.044c.268.098.547.144.824.144.812 0 1.607-.402 2.039-1.093a2.34 2.34 0 00.047-2.423zm-9.941.976a2.061 2.061 0 01-.209-.105 1.828 1.828 0 01-.217-.14c-.039-.03-.08-.054-.117-.086l-.265-.275-1.447-1.508c-.041-.044-.074-.092-.11-.14-.017-.024-.04-.046-.056-.07-.024-.04-.041-.082-.062-.122-.02-.038-.043-.074-.058-.114-.014-.037-.023-.075-.033-.113-.015-.047-.032-.093-.04-.142-.007-.03-.007-.061-.01-.093-.008-.057-.015-.116-.015-.175.001-.334.118-.668.357-.932a2.723 2.723 0 011.158-.752c.012.068.03.135.05.202.007.026.007.052.015.077l1.47 4.619a2.03 2.03 0 01-.411-.13zm6.828-2.908c-.004.032-.004.063-.01.093-.01.05-.026.096-.04.143-.012.037-.02.075-.034.112-.017.043-.041.082-.062.123-.02.037-.035.076-.058.112a1.38 1.38 0 01-.166.21l-1.7 1.773c-.12.104-.252.186-.39.259-.038.02-.077.041-.117.06a2.05 2.05 0 01-.456.15l1.467-4.615c.008-.025.008-.05.014-.074.02-.068.04-.136.05-.205.442.147.845.405 1.159.752.239.264.356.598.357.932 0 .06-.007.118-.014.175z"/></symbol><symbol id="icon-helpdesk" viewBox="0 0 15 14"><path d="M5.854 12.096c0-.413.145-.813.414-1.14a2.025 2.025 0 011.074-.671 2.15 2.15 0 011.29.077c.41.157.752.435.974.792 1.529-.628 2.102-1.614 2.102-3.488V5.622c0-2.72-1.647-4.6-4.208-4.6-2.56 0-4.207 1.88-4.207 4.6v2.384a.495.495 0 01-.161.362.57.57 0 01-.388.15h-.732a2.092 2.092 0 01-1.422-.55A1.813 1.813 0 010 6.644v-.681c0-.497.213-.973.59-1.325.377-.351.889-.549 1.422-.55h.35C2.916 1.655 4.812 0 7.5 0c2.689 0 4.584 1.655 5.138 4.088h.35c.533.001 1.045.199 1.422.55.377.351.59.828.59 1.324v.682c0 .496-.213.973-.59 1.324a2.093 2.093 0 01-1.422.55h-.226a3.813 3.813 0 01-.834 2.236 4.274 4.274 0 01-2.05 1.402c-.008.497-.228.97-.612 1.316A2.095 2.095 0 017.834 14a2.086 2.086 0 01-1.414-.57 1.807 1.807 0 01-.566-1.334zm1.098 0a.81.81 0 00.154.473c.1.14.243.249.41.313a.978.978 0 00.529.049.938.938 0 00.468-.233.836.836 0 00.25-.436.797.797 0 00-.052-.492.868.868 0 00-.337-.383.963.963 0 00-1.154.106.824.824 0 00-.268.603zm5.854-4.6h.182a.95.95 0 00.647-.25.824.824 0 00.268-.602v-.681a.824.824 0 00-.268-.603.951.951 0 00-.647-.25h-.182v2.386zM1.098 5.963v.681c0 .226.097.442.268.602a.95.95 0 00.646.25h.183V5.11h-.183a.95.95 0 00-.647.25.824.824 0 00-.267.602z"/></symbol><symbol id="icon-hink" viewBox="0 0 18 16"><path d="M13.495 4.55c-.379-.353-.71-.865-1.06-1.407-.408-.63-.83-1.281-1.394-1.797-.684-.627-1.45-.931-2.34-.931-.89 0-1.656.304-2.34.93-.564.517-.986 1.168-1.393 1.798-.351.542-.682 1.054-1.06 1.408C2.47 5.895.065 8.146.065 11.279c0 1.645.77 2.849 2.287 3.58 1.384.665 3.4.976 6.348.976 2.947 0 4.964-.31 6.348-.977 1.518-.73 2.287-1.934 2.287-3.579 0-3.133-2.405-5.384-3.841-6.728zm1.071 9.277c-1.21.583-3.129.866-5.865.866s-4.654-.283-5.865-.866c-1.137-.547-1.644-1.333-1.644-2.548 0-2.634 2.094-4.593 3.48-5.89.48-.449.865-1.044 1.237-1.62.369-.57.75-1.158 1.207-1.576.474-.434.978-.636 1.585-.636s1.111.202 1.585.636c.457.418.838 1.007 1.207 1.577.372.575.758 1.17 1.238 1.62 1.385 1.296 3.479 3.255 3.479 5.89 0 1.214-.507 2-1.644 2.547z"/><path d="M7.782 4.897L7.11 3.98c-.471.354-.557 1.095-.676 2.122-.146 1.258-.328 2.824-1.23 3.72l.79.815c1.184-1.179 1.4-3.042 1.558-4.402.06-.51.14-1.21.254-1.362 0 0-.008.01-.025.024zM10.967 6.102c-.119-1.027-.205-1.768-.676-2.122l-.67.917c-.018-.014-.026-.024-.026-.024.113.152.194.851.254 1.362.158 1.36.374 3.223 1.558 4.402l.79-.814c-.902-.897-1.084-2.463-1.23-3.721z"/></symbol><symbol id="icon-home" viewBox="0 0 22 21"><path d="M20.678 8.279l-2.545-2.117V2.776a.685.685 0 00-.677-.691h-1.6a.685.685 0 00-.678.691v.927l-3.4-2.829a1.425 1.425 0 00-.913-.317c-.341 0-.664.112-.908.315l-8.9 7.407c-.405.336-.38.63-.33.774.05.144.212.387.732.387h1.219v9.74c0 .695.552 1.26 1.231 1.26h3.849c.673 0 1.2-.553 1.2-1.26v-3.995c0-.342.309-.654.647-.654h2.586c.323 0 .585.294.585.654v3.995c0 .683.578 1.26 1.263 1.26h3.787c.679 0 1.231-.565 1.231-1.26V9.44h1.219c.52 0 .681-.243.732-.387.05-.145.074-.438-.33-.774z"/></symbol><symbol id="icon-hot" viewBox="0 0 19 17"><path d="M5.542 5.954a.301.301 0 10.427-.427.788.788 0 010-1.112c.263-.263.408-.612.408-.984 0-.371-.144-.72-.408-.983a.302.302 0 10-.427.427.782.782 0 010 1.113 1.393 1.393 0 000 1.966zM12.188 5.954a.301.301 0 10.427-.427.788.788 0 010-1.112c.262-.263.407-.612.407-.984 0-.371-.144-.72-.407-.983a.302.302 0 10-.428.427.782.782 0 010 1.113 1.393 1.393 0 000 1.966zM8.865 4.142a.301.301 0 00.427 0 .302.302 0 000-.427.788.788 0 010-1.112c.263-.263.408-.612.408-.984 0-.371-.145-.72-.408-.983a.302.302 0 10-.427.427.782.782 0 010 1.113 1.393 1.393 0 000 1.966zM7.655 8.312a.315.315 0 00.067-.007 6.084 6.084 0 011.336-.147h.003a.302.302 0 100-.605h-.004c-.496 0-.99.055-1.468.163a.302.302 0 00.066.596zM2.967 13.288a.302.302 0 00.351-.242c.314-1.722 1.35-3.253 2.774-4.097a.302.302 0 00-.307-.52c-1.572.932-2.716 2.617-3.061 4.507a.301.301 0 00.243.352z"/><path d="M16.8 12.877A7.872 7.872 0 0010.56 6.49c.005-.048.013-.097.013-.145 0-.833-.678-1.51-1.51-1.51-.833 0-1.51.677-1.51 1.51 0 .048.007.097.012.145a7.872 7.872 0 00-6.242 6.387C.69 13.234 0 13.76 0 14.35c0 1.536 4.685 2.567 9.061 2.567s9.062-1.032 9.062-2.567c0-.59-.69-1.116-1.322-1.473zm-8.643-6.48a.907.907 0 111.81-.052l-.001.052-.043-.003a7.645 7.645 0 00-.313-.027c-.039-.003-.077-.007-.116-.009a7.894 7.894 0 00-.865 0c-.039.002-.077.006-.116.009-.105.007-.21.016-.313.027l-.043.003zm-.183.634a7.36 7.36 0 01.489-.055l.1-.007c.332-.023.665-.023.997 0l.1.007c.164.013.327.031.49.055a7.266 7.266 0 016.121 6.428l.011.1c.012.134.02.268.025.402a32.232 32.232 0 01-14.49 0c.004-.134.012-.268.024-.402l.011-.1A7.264 7.264 0 017.974 7.03zm1.087 9.282c-5.163 0-8.457-1.29-8.457-1.963 0-.116.143-.371.624-.704-.002.018-.001.035-.002.052-.01.165-.018.332-.018.5v.239l.232.056c2.493.598 5.057.897 7.621.897s5.129-.3 7.622-.898l.232-.055v-.238c0-.169-.008-.335-.018-.501-.001-.017 0-.034-.002-.052.48.333.624.588.624.704 0 .674-3.294 1.963-8.458 1.963z"/></symbol><symbol id="icon-image" viewBox="0 0 76 58"><path d="M68.045 9.829h-1.667V8.162a7.126 7.126 0 00-7.118-7.118H8.17a7.126 7.126 0 00-7.118 7.118v33.44c0 3.925 3.193 7.118 7.117 7.118h1.667v1.667a7.126 7.126 0 007.118 7.118h51.09a7.126 7.126 0 007.118-7.118v-33.44c0-3.925-3.193-7.118-7.117-7.118zm1.873 40.558a1.873 1.873 0 01-1.873 1.873h-51.09a1.873 1.873 0 01-1.874-1.873v-33.44c0-1.035.839-1.873 1.873-1.873h51.091c1.034 0 1.873.838 1.873 1.873v33.44zM6.296 41.602V8.162c0-1.035.839-1.873 1.873-1.873H59.26c1.034 0 1.873.838 1.873 1.873v1.667H16.954a7.126 7.126 0 00-7.118 7.118v26.528H8.17a1.873 1.873 0 01-1.873-1.873z"/><path d="M68.045 57.566h-51.09c-3.959 0-7.18-3.22-7.18-7.178v-1.606H8.17c-3.959 0-7.179-3.22-7.179-7.18V8.163C.991 4.204 4.211.984 8.17.984h51.09c3.959 0 7.18 3.22 7.18 7.178v1.606h1.605c3.959 0 7.18 3.22 7.18 7.18v33.44c0 3.958-3.221 7.178-7.18 7.178zM8.17 1.106a7.065 7.065 0 00-7.057 7.056v33.44A7.064 7.064 0 008.17 48.66h1.728v1.729a7.065 7.065 0 007.057 7.056h51.09a7.065 7.065 0 007.057-7.056v-33.44a7.064 7.064 0 00-7.057-7.057h-1.728V8.162a7.064 7.064 0 00-7.056-7.056H8.17zm59.875 51.216h-51.09a1.937 1.937 0 01-1.935-1.934v-33.44c0-1.067.868-1.935 1.935-1.935h51.09c1.067 0 1.935.868 1.935 1.934v33.44a1.937 1.937 0 01-1.935 1.935zm-51.09-37.187c-1 0-1.812.813-1.812 1.812v33.44c0 1 .813 1.812 1.812 1.812h51.09c1 0 1.812-.812 1.812-1.811v-33.44c0-1-.813-1.813-1.812-1.813h-51.09zM9.898 43.537H8.17a1.937 1.937 0 01-1.934-1.934V8.163c0-1.067.867-1.935 1.934-1.935h51.09c1.067 0 1.935.868 1.935 1.934v1.729h-44.24a7.064 7.064 0 00-7.057 7.056v26.59zM8.17 6.35c-1 0-1.812.813-1.812 1.812v33.44c0 1 .813 1.813 1.812 1.813h1.606V16.947c0-3.958 3.22-7.179 7.179-7.179h44.117V8.162c0-.999-.812-1.811-1.811-1.811H8.17z"/><path d="M62.451 44.494l-1.726-1.726-8.355-8.356a1.873 1.873 0 00-2.649 0l-4.748 4.748-8.87-8.87a1.873 1.873 0 00-2.648 0L20.27 43.475l-1.019 1.019a1.87 1.87 0 000 2.649l1.06 1.06a1.865 1.865 0 001.663.517c.36-.066.706-.239.986-.518l2.104-2.105 2.623-2.622 5.767-5.767a1.873 1.873 0 012.65 0l5.767 5.767 2.622 2.622 2.105 2.105a1.865 1.865 0 001.663.518c.361-.066.706-.239.986-.518l1.06-1.06a1.87 1.87 0 000-2.649l-1.019-1.018-.606-.606 2.363-2.364 2.97 2.97 2.623 2.622 2.105 2.105a1.876 1.876 0 002.65 0l1.058-1.06a1.873 1.873 0 000-2.648z"/><path d="M47.923 48.812a1.922 1.922 0 01-1.368-.566L36.06 37.751a1.8 1.8 0 00-1.28-.53 1.8 1.8 0 00-1.282.53L23.004 48.246a1.922 1.922 0 01-1.718.535 1.922 1.922 0 01-1.018-.535l-1.06-1.06a1.92 1.92 0 01-.545-1.079 1.944 1.944 0 01.545-1.656l14.204-14.203a1.922 1.922 0 011.367-.567c.517 0 1.003.201 1.368.567l8.827 8.826 4.704-4.704a1.922 1.922 0 011.368-.567c.517 0 1.002.201 1.368.567L62.495 44.45a1.927 1.927 0 010 2.736l-1.06 1.06a1.942 1.942 0 01-1.367.565 1.937 1.937 0 01-1.368-.566l-7.654-7.654-2.277 2.278 1.582 1.581c.431.432.635 1.051.544 1.656a1.92 1.92 0 01-.544 1.08l-1.06 1.06a1.922 1.922 0 01-1.368.565zM34.78 37.098c.517 0 1.003.201 1.368.567L46.642 48.16a1.8 1.8 0 001.609.5 1.8 1.8 0 00.953-.5l1.06-1.06a1.8 1.8 0 00.51-1.011 1.82 1.82 0 00-.51-1.551l-1.668-1.669 2.45-2.45 7.74 7.74c.247.247.557.416.897.49a1.819 1.819 0 001.666-.489l1.06-1.06a1.805 1.805 0 000-2.562L52.327 34.456a1.8 1.8 0 00-1.28-.53 1.8 1.8 0 00-1.282.53l-4.791 4.791-8.913-8.913a1.8 1.8 0 00-1.282-.53 1.8 1.8 0 00-1.28.53L19.294 44.538a1.82 1.82 0 00-.51 1.551c.058.385.234.735.51 1.011l1.06 1.06a1.8 1.8 0 001.608.5 1.8 1.8 0 00.954-.5l10.495-10.495a1.921 1.921 0 011.367-.567zM61.133 18.352a7.19 7.19 0 00-2.635-.497c-3.985 0-7.227 3.242-7.227 7.226 0 3.986 3.242 7.227 7.227 7.227.93 0 1.818-.176 2.635-.497a7.252 7.252 0 002.622-1.776 7.2 7.2 0 001.97-4.954 7.2 7.2 0 00-1.97-4.953 7.253 7.253 0 00-2.622-1.776zm-2.635 8.712a1.982 1.982 0 110-3.965 1.982 1.982 0 010 3.965z"/><path d="M58.498 32.37c-4.018 0-7.288-3.27-7.288-7.288 0-4.018 3.27-7.288 7.288-7.288.916 0 1.81.169 2.658.502a7.355 7.355 0 012.644 1.791 7.256 7.256 0 011.987 4.995 7.257 7.257 0 01-1.987 4.995 7.358 7.358 0 01-2.644 1.792 7.237 7.237 0 01-2.657.501zm0-14.453c-3.95 0-7.165 3.214-7.165 7.165s3.214 7.166 7.166 7.166c.9 0 1.78-.166 2.612-.493a7.234 7.234 0 002.6-1.762 7.134 7.134 0 001.953-4.91 7.134 7.134 0 00-1.953-4.912 7.235 7.235 0 00-2.6-1.761 7.116 7.116 0 00-2.612-.494zm0 9.209a2.046 2.046 0 01-2.043-2.044c0-1.127.916-2.043 2.043-2.043 1.127 0 2.044.917 2.044 2.043a2.046 2.046 0 01-2.044 2.044zm0-3.965c-1.059 0-1.92.862-1.92 1.921 0 1.06.861 1.921 1.92 1.921 1.06 0 1.922-.862 1.922-1.92 0-1.06-.862-1.922-1.922-1.922z"/></symbol><symbol id="icon-key" viewBox="0 0 14 14"><path fill-rule="evenodd" clip-rule="evenodd" d="M5.235 5.572a3.82 3.82 0 113.82 3.82H7.963v1.092H6.872v1.091H5.78v1.092H1.96V9.712l3.355-3.355a3.834 3.834 0 01-.08-.785zm1.637 2.729h2.183a2.729 2.729 0 10-2.612-1.936l.095.313-3.486 3.486v1.411h1.637v-1.091h1.092V9.392h1.091V8.301zm1.091-2.729a1.091 1.091 0 102.183 0 1.091 1.091 0 00-2.183 0z"/></symbol><symbol id="icon-long-arr" viewBox="0 0 20 15"><path d="M19.654 8.317a.926.926 0 000-1.31l-5.89-5.89a.926.926 0 00-1.31 1.309l5.237 5.236-5.237 5.237a.926.926 0 101.31 1.309l5.89-5.891zm-19.168.27H19v-1.85H.486v1.85z"/></symbol><symbol id="icon-menu" viewBox="0 0 18 14"><path d="M5.717 13.779A.872.872 0 015.1 12.29l6.587-6.588a.872.872 0 011.232 1.233l-6.587 6.588a.869.869 0 01-.616.255z"/><path d="M13.53 8.745a3.634 3.634 0 01-2.59-1.06c-1.454-1.455-1.405-3.87.11-5.385.984-.984 2.644-1.67 4.037-1.67.878 0 1.613.27 2.125.782 1.585 1.585.515 4.758-.888 6.161a3.933 3.933 0 01-2.794 1.172zm1.557-6.372c-.922 0-2.154.509-2.804 1.16-.835.835-.885 2.144-.11 2.919.354.354.836.55 1.357.55.58 0 1.135-.235 1.562-.661 1.006-1.007 1.504-3.08.887-3.696-.225-.225-.61-.272-.892-.272zM13.065 13.936a.869.869 0 01-.617-.255L6.082 7.315a.872.872 0 011.233-1.233l6.366 6.366a.872.872 0 01-.616 1.488z"/><path d="M4.47 8.872c-.633 0-1.23-.247-1.678-.695L.255 5.64a.872.872 0 011.233-1.233l2.537 2.537a.626.626 0 00.892 0l2.027-2.028a.626.626 0 00.185-.445.626.626 0 00-.185-.446L4.407 1.488A.872.872 0 015.64.255l2.537 2.537c.448.449.695 1.045.695 1.679 0 .634-.247 1.23-.695 1.678L6.149 8.177a2.358 2.358 0 01-1.678.695z"/><path d="M6.145 7.017a.87.87 0 01-.616-.256L2.346 3.578a.872.872 0 011.233-1.232l3.183 3.183a.872.872 0 01-.617 1.488z"/></symbol><symbol id="icon-msg" viewBox="0 0 7 7"><path d="M3.366.763C1.624.763.206 1.972.206 3.458c0 .519.174 1.022.502 1.457C.646 5.567.48 6.052.237 6.28a.096.096 0 00-.02.115.106.106 0 00.11.054c.042-.005 1.033-.14 1.75-.532.407.155.84.234 1.29.234 1.742 0 3.16-1.209 3.16-2.694 0-1.486-1.418-2.695-3.16-2.695z"/></symbol><symbol id="icon-navi" viewBox="0 0 23 13"><rect width="20.342" height="2.347" rx="1.174"/><rect y="5.085" width="22.297" height="2.347" rx="1.174"/><rect y="10.171" width="10.953" height="2.347" rx="1.174"/></symbol><symbol id="icon-payment" viewBox="0 0 16 11"><path d="M0 0v10.046h16V0H0zm1.116 1.116h1.795a2.426 2.426 0 01-1.795 1.795V1.116zm0 7.814V7.136c.886.21 1.585.908 1.795 1.794H1.116zm13.768 0h-1.795a2.426 2.426 0 011.795-1.794V8.93zm0-2.932A3.543 3.543 0 0011.95 8.93H4.05a3.543 3.543 0 00-2.933-2.932v-1.95A3.543 3.543 0 004.05 1.117h7.902a3.543 3.543 0 002.933 2.933v1.949zm0-3.087a2.426 2.426 0 01-1.795-1.795h1.795v1.795z"/><path d="M8 2.977a2.049 2.049 0 00-2.047 2.046c0 1.129.919 2.047 2.047 2.047a2.049 2.049 0 002.046-2.047A2.049 2.049 0 008 2.977zm0 2.976a.931.931 0 010-1.86.931.931 0 010 1.86z"/></symbol><symbol id="icon-person" viewBox="0 0 31 31"><path fill-rule="evenodd" clip-rule="evenodd" d="M18.083 9.042A2.586 2.586 0 0015.5 6.458a2.586 2.586 0 00-2.583 2.584 2.586 2.586 0 002.583 2.583 2.586 2.586 0 002.583-2.583zm2.584 0a5.172 5.172 0 01-5.167 5.166 5.172 5.172 0 01-5.167-5.166A5.172 5.172 0 0115.5 3.875a5.172 5.172 0 015.167 5.167zM6.458 25.833c0-4.986 4.057-9.041 9.042-9.041 4.985 0 9.042 4.055 9.042 9.041a1.291 1.291 0 11-2.584 0 6.466 6.466 0 00-6.458-6.458 6.466 6.466 0 00-6.458 6.458 1.291 1.291 0 11-2.584 0z"/><mask id="a" maskUnits="userSpaceOnUse" x="6" y="3" width="19" height="25"><path fill-rule="evenodd" clip-rule="evenodd" d="M18.083 9.042A2.586 2.586 0 0015.5 6.458a2.586 2.586 0 00-2.583 2.584 2.586 2.586 0 002.583 2.583 2.586 2.586 0 002.583-2.583zm2.584 0a5.172 5.172 0 01-5.167 5.166 5.172 5.172 0 01-5.167-5.166A5.172 5.172 0 0115.5 3.875a5.172 5.172 0 015.167 5.167zM6.458 25.833c0-4.986 4.057-9.041 9.042-9.041 4.985 0 9.042 4.055 9.042 9.041a1.291 1.291 0 11-2.584 0 6.466 6.466 0 00-6.458-6.458 6.466 6.466 0 00-6.458 6.458 1.291 1.291 0 11-2.584 0z"/></mask><g mask="url(#a)"><path d="M0 0h31v31H0z"/></g></symbol><symbol id="icon-phone" viewBox="0 0 17 17"><path fill-rule="evenodd" clip-rule="evenodd" d="M4.675 2.833a1.843 1.843 0 00-1.842 1.842c0 5.233 4.258 9.492 9.492 9.492a1.844 1.844 0 001.827-2.074l-3.273-.751-.201.386c-.324.616-.557 1.064-1.154.824-2.341-.822-4.253-2.734-5.085-5.104-.253-.557.228-.809.839-1.127l.38-.2-.75-3.273a1.843 1.843 0 00-.233-.015zm7.65 12.75c-6.015 0-10.908-4.893-10.908-10.908A3.262 3.262 0 015.73 1.592a.71.71 0 01.458.512l.97 4.224a.707.707 0 01-.179.65c-.096.1-.098.102-.977.562a7.047 7.047 0 003.456 3.458c.46-.879.463-.881.564-.978a.715.715 0 01.649-.179l4.225.97c.237.054.43.227.51.457a3.23 3.23 0 01.176 1.057 3.262 3.262 0 01-3.258 3.258z"/><mask id="a" maskUnits="userSpaceOnUse" x="1" y="1" width="15" height="15"><path fill-rule="evenodd" clip-rule="evenodd" d="M4.675 2.833a1.843 1.843 0 00-1.842 1.842c0 5.233 4.258 9.492 9.492 9.492a1.844 1.844 0 001.827-2.074l-3.273-.751-.201.386c-.324.616-.557 1.064-1.154.824-2.341-.822-4.253-2.734-5.085-5.104-.253-.557.228-.809.839-1.127l.38-.2-.75-3.273a1.843 1.843 0 00-.233-.015zm7.65 12.75c-6.015 0-10.908-4.893-10.908-10.908A3.262 3.262 0 015.73 1.592a.71.71 0 01.458.512l.97 4.224a.707.707 0 01-.179.65c-.096.1-.098.102-.977.562a7.047 7.047 0 003.456 3.458c.46-.879.463-.881.564-.978a.715.715 0 01.649-.179l4.225.97c.237.054.43.227.51.457a3.23 3.23 0 01.176 1.057 3.262 3.262 0 01-3.258 3.258z"/></mask><g mask="url(#a)"><path d="M0 0h17v17H0z"/></g></symbol><symbol id="icon-pig" viewBox="0 0 38 44"><path d="M11.025 21.871c6.02 0 10.903-4.883 10.903-10.903 0-6.02-4.883-10.912-10.903-10.912C5.005.056.122 4.939.122 10.959c0 6.02 4.883 10.912 10.903 10.912zm-3.809-6.598c.1-.36.199-.713.307-1.074.127-.415.244-.46.623-.262.65.334 1.336.524 2.058.614.46.054.92.01 1.345-.18.803-.352.93-1.282.252-1.842a3.29 3.29 0 00-.767-.45c-.704-.308-1.435-.543-2.103-.94-1.074-.64-1.76-1.534-1.679-2.843.09-1.48.93-2.41 2.284-2.897.56-.208.56-.199.569-.785v-.596c.009-.442.09-.514.523-.532h.406c.939 0 .939 0 .939.938 0 .66 0 .668.659.767.505.082.984.226 1.453.434.262.117.352.298.28.568-.118.406-.226.813-.361 1.21-.127.379-.244.433-.605.261a4.64 4.64 0 00-2.31-.46 1.589 1.589 0 00-.614.127c-.695.306-.813 1.074-.217 1.552.298.244.64.415 1.002.56.614.252 1.236.505 1.832.83 1.868 1.038 2.374 3.385 1.056 4.982a3.51 3.51 0 01-1.823 1.164c-.316.09-.46.253-.442.578.018.325 0 .64 0 .966 0 .289-.145.442-.434.451-.343.01-.695.01-1.038 0-.306-.009-.45-.18-.45-.478 0-.235 0-.47-.01-.704-.009-.515-.018-.542-.523-.623-.641-.1-1.264-.244-1.85-.533-.443-.207-.488-.325-.362-.803z"/><path d="M35.485 22.782h-1.273c-.839-2.572-2.482-4.856-4.675-6.625 0-.08-.018-.171-.036-.252-.46-1.616.108-3.087.767-4.143.46-.74-.135-1.688-1.002-1.58-1.94.244-3.276.957-4.197 1.76a4.077 4.077 0 00-1.281 2.112c-1.39 5.759-6.58 10.046-12.763 10.046-3.005 0-5.767-1.01-7.978-2.708a12.763 12.763 0 00-.813 8.421 13.027 13.027 0 001.083 2.88c.623 1.344 1.526 2.915 2.771 4.188 1.796 1.85 2.103 4.142 2.148 5.135v.488a.945.945 0 00.94.875h5.703a.938.938 0 00.94-.939v-1.408c.83.109 1.678.172 2.535.172.677 0 1.336-.036 1.995-.108v1.344c0 .515.415.939.939.939h5.722a.938.938 0 00.939-.939v-1.408c.009-.469.171-2.337 1.94-3.935l.19-.162c.018-.018.036-.027.054-.046 1.967-1.75 3.42-3.935 4.17-6.372h1.2c.957 0 1.733-.776 1.733-1.733v-4.269a1.76 1.76 0 00-1.75-1.733zm-7.14.307a1.414 1.414 0 01-1.416-1.417c0-.785.632-1.417 1.417-1.417s1.417.632 1.417 1.417-.632 1.417-1.417 1.417z"/></symbol><symbol id="icon-profile" viewBox="0 0 11 15"><path d="M5.245 0a3.289 3.289 0 110 6.577 3.289 3.289 0 010-6.577zm-.002 14.311A7.297 7.297 0 01.492 12.56 1.401 1.401 0 010 11.494 3.316 3.316 0 013.333 8.18h3.826a3.312 3.312 0 013.327 3.315c0 .41-.179.799-.491 1.065a7.294 7.294 0 01-4.752 1.752z"/></symbol><symbol id="icon-repeat" viewBox="0 0 17 14"><path d="M2.365 13.282h12.713a1.79 1.79 0 001.788-1.789V3.89a1.79 1.79 0 00-1.788-1.789h-3.69a.409.409 0 100 .818h3.69c.538 0 .974.436.974.974v7.603a.973.973 0 01-.974.974H2.365a.973.973 0 01-.974-.974V3.89c0-.539.435-.974.974-.974h5.372L6.371 4.282a.405.405 0 00.289.695c.106 0 .21-.04.29-.12l2.06-2.06a.405.405 0 000-.576L6.95.16a.405.405 0 00-.576 0 .405.405 0 000 .575L7.74 2.101H2.365A1.79 1.79 0 00.576 3.89v7.603c0 .984.801 1.789 1.789 1.789z"/></symbol><symbol id="icon-salad" viewBox="0 0 17 16"><path d="M16.057 7.937a.719.719 0 00-.727-.71h-.066c-.303-1.606-1.612-2.87-3.261-3.144C11.683 2.24 10.037.83 8.06.83 6.085.83 4.44 2.24 4.12 4.083 2.47 4.357 1.162 5.621.86 7.226H.792a.719.719 0 00-.727.711c0 2.808 1.522 5.274 3.802 6.653a.698.698 0 00-.168.454c0 .392.326.71.727.71h7.268a.719.719 0 00.727-.71.699.699 0 00-.167-.454c2.28-1.379 3.802-3.845 3.802-6.653zM4.79 5.45a.719.719 0 00.726-.711c0-1.372 1.142-2.488 2.544-2.488 1.403 0 2.544 1.116 2.544 2.488 0 .392.326.71.727.71 1.15 0 2.124.751 2.438 1.777h-3.528a.7.7 0 00.145-.995.738.738 0 00-1.017-.142l-.582.427V4.952a.719.719 0 00-.727-.71.719.719 0 00-.727.71v1.564l-.581-.427a.738.738 0 00-1.018.142.7.7 0 00.146.995H2.353A2.541 2.541 0 014.79 5.45zm3.27 8.883c-3.361 0-6.138-2.492-6.501-5.685h13.003c-.363 3.193-3.14 5.685-6.502 5.685z"/></symbol><symbol id="icon-sauce" viewBox="0 0 17 10"><path d="M12.92 2.375c0-.54.459-1.017 1.024-1.017.564 0 1.024.44 1.024.98s-.46.98-1.024.98c-.301 0-.545.233-.545.52 0 .288.244.522.545.522 1.165 0 2.113-.907 2.113-2.022 0-1.115-.948-2.022-2.113-2.022-1.061 0-1.941.751-2.09 1.727-.697.237-1.335.352-1.943.352-1.29 0-2.25-.525-3.268-1.08C6.035.983 5.407.64 4.704.416A4.88 4.88 0 003.221.18C1.41.18.273 1.247.226 1.292a.507.507 0 00-.149.474.527.527 0 00.331.379c1.637.626 2.539 1.679 3.41 2.697.867 1.01 1.758 2.049 3.292 2.435C6.597 7.724 6.1 8.382 6.1 9.253c0 .287.244.52.545.52h3.594a.533.533 0 00.543-.558c-.014-.896-.555-1.563-1.087-2.005 1.887-.694 3.223-2.913 3.223-4.835zM7.305 8.732c.244-.543.817-.925 1.136-1.104.317.18.89.563 1.136 1.104H7.306zm3.492-3.613c-.673.822-1.506 1.274-2.345 1.274-1.897 0-2.733-.976-3.792-2.212-.763-.89-1.61-1.88-2.97-2.605a3.49 3.49 0 011.53-.355c.374 0 .757.062 1.139.184.6.191 1.156.494 1.743.815 1.096.598 2.23 1.217 3.807 1.217.592 0 1.198-.087 1.836-.266a4.689 4.689 0 01-.948 1.948z"/></symbol><symbol id="icon-shash" viewBox="0 0 17 19"><path d="M7.668 4.267l-.306-.246a.487.487 0 01.01-.77 1.73 1.73 0 00.687-1.342 1.73 1.73 0 00-.62-1.373.625.625 0 10-.804.956.482.482 0 01.175.387.481.481 0 01-.193.377 1.728 1.728 0 00-.687 1.36c-.007.54.23 1.042.65 1.379l.306.246a.622.622 0 00.878-.095.625.625 0 00-.096-.879zM10.263 4.59l-.36-.288a.69.69 0 01-.14-.91.683.683 0 01.155-.164c.47-.357.747-.9.762-1.49A1.921 1.921 0 009.99.213a.625.625 0 10-.803.956c.16.134.248.33.243.539a.678.678 0 01-.27.525A1.919 1.919 0 008.4 3.744a1.919 1.919 0 00.72 1.532l.36.288a.622.622 0 00.878-.095.625.625 0 00-.095-.878zM12.759 4.267l-.307-.246a.488.488 0 01.01-.77 1.73 1.73 0 00.687-1.342 1.73 1.73 0 00-.62-1.373.625.625 0 10-.803.956.481.481 0 01.174.387.481.481 0 01-.193.377 1.728 1.728 0 00-.687 1.36c-.007.54.23 1.042.65 1.379l.306.246a.622.622 0 00.878-.095.625.625 0 00-.095-.879z"/><path d="M16.057 8.789V6.543c0-.345-.28-.63-.625-.63a.652.652 0 00-.534.297H4.106L1.245.717a.626.626 0 00-1.108.58l2.802 5.388v2.104a6.59 6.59 0 003.534 5.838l-1.95 2.918a.625.625 0 001.039.694l.867-1.299 2.465.761v.168a.625.625 0 001.25 0v-.168l2.464-.76.868 1.298a.624.624 0 101.039-.694l-1.96-2.932a6.593 6.593 0 003.502-5.824zM4.189 7.459h10.618V8H4.19v-.54zm4.705 8.935l-1.74-.537.502-.752c.399.117.813.198 1.238.237v1.052zm1.25 0V15.34a6.49 6.49 0 001.233-.242l.507.759-1.74.537zm-.636-2.272h-.005A5.316 5.316 0 014.21 9.25h10.576c-.237 2.748-2.513 4.872-5.278 4.872z"/></symbol><symbol id="icon-snack" viewBox="0 0 18 18"><path d="M14.625 3.064A8.472 8.472 0 008.595.566c-2.279 0-4.42.887-6.031 2.498a8.472 8.472 0 00-2.498 6.03c0 2.267.88 4.401 2.477 6.01a.296.296 0 10.42-.418A7.886 7.886 0 01.658 9.094c0-4.376 3.56-7.936 7.936-7.936 4.376 0 7.936 3.56 7.936 7.936 0 4.376-3.56 7.936-7.936 7.936a7.85 7.85 0 01-4.946-1.73.296.296 0 00-.37.464 8.438 8.438 0 005.316 1.858c2.278 0 4.42-.887 6.03-2.497a8.472 8.472 0 002.499-6.03c0-2.279-.888-4.42-2.498-6.031z"/><path d="M13.793 7.045a5.584 5.584 0 00-.56-1.065.296.296 0 10-.492.33c.2.299.369.619.5.952a.296.296 0 00.552-.217zM10.926 13.854a.296.296 0 00-.388-.158 5 5 0 01-6.747-5.975.296.296 0 10-.57-.163 5.593 5.593 0 007.547 6.683.296.296 0 00.158-.387zM12.67 3.406c-.171-.295-.443-.417-.633-.483a.296.296 0 00-.164-.01l-.023.006a.852.852 0 01-.884-.333.296.296 0 00-.134-.104c-.184-.07-.466-.152-.78-.04a2.175 2.175 0 00-1.398 1.573 2.908 2.908 0 00-.408-.42 1.142 1.142 0 00-1.373-.088l-.115.075a.653.653 0 01-.725-.009l-.068-.047a1.145 1.145 0 00-1.377.054c-.251.207-.463.452-.631.73a.296.296 0 00.507.307 2.275 2.275 0 01.526-.6.553.553 0 01.64-.001l.07.047c.415.283.957.29 1.38.017l.115-.075a.55.55 0 01.67.044c.555.466.849 1.149.807 1.874a2.287 2.287 0 01-2.158 2.13 2.251 2.251 0 01-1.673-.626 2.249 2.249 0 01-.702-1.64c0-.15.015-.299.044-.444a.296.296 0 00-.581-.115 2.885 2.885 0 00-.055.559c0 .789.314 1.523.885 2.068a2.835 2.835 0 002.11.789 2.851 2.851 0 001.873-.824 2.85 2.85 0 00.84-1.763 2.176 2.176 0 002.436.42c.492-.225.88-.621 1.092-1.114a2.166 2.166 0 00-.114-1.957zm-.43 1.723a1.602 1.602 0 01-1.93.886 1.578 1.578 0 01-.953-.812 1.575 1.575 0 01-.07-1.248c.163-.447.514-.795.962-.955a.363.363 0 01.124-.021c.052 0 .107.01.173.03.332.402.854.594 1.37.5a.46.46 0 01.24.193c.254.44.284.96.083 1.427zM15.038 9.646a1.774 1.774 0 00-2.745-1.603 1.319 1.319 0 00-.988-.127 1.33 1.33 0 00-.389 2.396l-.01.161c-.03.52-.061 1.059-.62 2.017a.296.296 0 00.105.405l1.354.79a.295.295 0 00.405-.105c.433-.74.8-1.069 1.07-1.272a.296.296 0 00-.355-.474c-.405.304-.743.679-1.072 1.194l-.852-.498c.49-.924.527-1.523.555-2.012.1.011.2.011.301 0a1.769 1.769 0 001.329.776 1.331 1.331 0 001.222.816 1.329 1.329 0 00.69-2.464zm-.053 1.507a.736.736 0 01-1.353-.215.296.296 0 00-.305-.232 1.177 1.177 0 01-1.117-.653.296.296 0 00-.352-.151.736.736 0 11.254-1.267.296.296 0 00.383-.004 1.182 1.182 0 011.931 1.129.296.296 0 00.185.335.736.736 0 01.374 1.058z"/><path d="M8.458 11.934a.296.296 0 100-.593.296.296 0 000 .593zM7.842 10.749a.296.296 0 100-.592.296.296 0 000 .592zM7.002 11.815a.296.296 0 100-.593.296.296 0 000 .593zM6.152 12.23a.296.296 0 100-.593.296.296 0 000 .592zM5.675 11.163a.296.296 0 100-.592.296.296 0 000 .592zM6.682 10.63a.296.296 0 100-.592.296.296 0 000 .592zM7.002 9.564a.296.296 0 100-.592.296.296 0 000 .592zM5.616 10.097a.296.296 0 100-.592.296.296 0 000 .592z"/></symbol><symbol id="icon-soup" viewBox="0 0 17 16"><path d="M15.33 7.268H.793a.727.727 0 00-.727.727A7.997 7.997 0 003.868 14.8a.727.727 0 00.56 1.19h7.268a.727.727 0 00.559-1.19 7.997 7.997 0 003.802-6.805.727.727 0 00-.727-.727z"/><path d="M13.559 8.417H2.846a.525.525 0 00-.535.514c0 2.033 1.121 3.818 2.801 4.816a.5.5 0 00-.123.328c0 .284.24.514.535.514h5.357c.296 0 .535-.23.535-.514a.5.5 0 00-.123-.328c1.68-.998 2.802-2.783 2.802-4.816a.525.525 0 00-.536-.514z"/><path d="M5.183.213a.727.727 0 00-1.028 0c-.396.397-.94.94-.94 1.967 0 1.028.544 1.572.94 1.968.357.357.514.531.514.94a.727.727 0 001.454 0c0-1.028-.543-1.571-.94-1.968-.356-.356-.514-.53-.514-.94 0-.408.158-.583.514-.94a.727.727 0 000-1.027zM8.575.213a.727.727 0 00-1.028 0c-.396.396-.94.94-.94 1.967 0 1.028.544 1.572.94 1.968.357.357.514.531.514.94a.727.727 0 001.454 0c0-1.028-.543-1.571-.94-1.968-.356-.356-.514-.53-.514-.94 0-.408.158-.583.514-.94a.727.727 0 000-1.027zM11.967.213a.727.727 0 00-1.028 0c-.396.396-.94.94-.94 1.967 0 1.028.544 1.572.94 1.968.357.357.514.531.514.94a.727.727 0 101.454 0c0-1.028-.543-1.571-.94-1.968-.356-.356-.514-.53-.514-.94 0-.408.158-.583.514-.94a.727.727 0 000-1.027z"/></symbol><symbol id="icon-star" viewBox="0 0 13 13"><path fill-rule="evenodd" clip-rule="evenodd" d="M9.272 11.066a.503.503 0 01-.233-.057L6.474 9.67l-2.565 1.34a.504.504 0 01-.728-.532l.488-2.83L1.597 5.64a.504.504 0 01.277-.859l2.868-.416 1.282-2.58c.17-.341.73-.341.9 0l1.283 2.58 2.867.416a.502.502 0 01.278.86L9.279 7.645l.489 2.831a.503.503 0 01-.496.59z"/><mask id="a" maskUnits="userSpaceOnUse" x="1" y="1" width="11" height="11"><path fill-rule="evenodd" clip-rule="evenodd" d="M9.272 11.066a.503.503 0 01-.233-.057L6.474 9.67l-2.565 1.34a.504.504 0 01-.728-.532l.488-2.83L1.597 5.64a.504.504 0 01.277-.859l2.868-.416 1.282-2.58c.17-.341.73-.341.9 0l1.283 2.58 2.867.416a.502.502 0 01.278.86L9.279 7.645l.489 2.831a.503.503 0 01-.496.59z"/></mask><g mask="url(#a)"><path d="M.437.501h12.074v12.074H.437z"/></g></symbol><symbol id="icon-story" viewBox="0 0 38 42"><path d="M37.834 32.75l-1.19-10.934a2.718 2.718 0 00-2.706-2.428h-.867v-1.99a4.773 4.773 0 00-4.768-4.768 4.773 4.773 0 00-4.768 4.768v1.99h-.867a2.718 2.718 0 00-2.706 2.427L18.77 32.75a2.723 2.723 0 002.706 3.017H35.13a2.723 2.723 0 002.706-3.017zm-2.705 1.656H21.477a1.36 1.36 0 01-1.353-1.508l1.19-10.935a1.36 1.36 0 011.354-1.214h.867v1.718a.68.68 0 001.36 0v-5.069a3.41 3.41 0 013.408-3.407 3.41 3.41 0 013.407 3.407v1.99h-4.307a.68.68 0 000 1.361h4.307v1.718a.68.68 0 001.36 0v-1.718h.868c.696 0 1.278.522 1.353 1.214l1.19 10.935a1.36 1.36 0 01-1.352 1.508zm-4.444 3.913a.68.68 0 00-.68.68c0 .75-.611 1.361-1.362 1.361H2.954c-.75 0-1.36-.61-1.36-1.36V3.613c0-.75.61-1.361 1.36-1.361h19.14V7.44c0 1.501 1.22 2.722 2.721 2.722h5.87a.681.681 0 00.48-1.161C22.648.482 23.199.962 22.908.905c-.094-.019.99-.013-19.953-.013A2.725 2.725 0 00.232 3.614v35.385a2.725 2.725 0 002.722 2.722h25.69c1.5 0 2.721-1.22 2.721-2.722a.68.68 0 00-.68-.68zm-5.87-29.517c-.75 0-1.36-.61-1.36-1.36V3.214l5.587 5.587h-4.227zm-13.77 2.127a2.04 2.04 0 00-2.041-2.045H7.63a2.044 2.044 0 00-2.041 2.041v1.368c0 1.126.916 2.042 2.041 2.042h1.371c1.123 0 2.04-.914 2.042-2.038l.002-1.368zm-1.364 1.366c0 .374-.306.679-.68.679h-1.37a.681.681 0 01-.681-.68v-1.369c0-.375.305-.68.68-.68h1.374a.68.68 0 01.68.682l-.003 1.368zm1.354 8.841a2.044 2.044 0 00-2.041-2.041H7.633a2.044 2.044 0 00-2.042 2.041v1.361c0 1.126.916 2.042 2.042 2.042h1.36a2.044 2.044 0 002.042-2.042v-1.36zm-1.36 1.361c0 .376-.306.68-.681.68H7.633a.681.681 0 01-.68-.68v-1.36c0-.376.305-.681.68-.681h1.36c.376 0 .681.305.681.68v1.361zm-.681 6.805H7.633a2.044 2.044 0 00-2.042 2.042v1.36c0 1.127.916 2.042 2.042 2.042h1.36a2.044 2.044 0 002.042-2.041v-1.361a2.044 2.044 0 00-2.041-2.042zm.68 3.403c0 .375-.305.68-.68.68H7.633a.681.681 0 01-.68-.68v-1.361c0-.375.305-.68.68-.68h1.36c.376 0 .681.305.681.68v1.36zm9.368-20.415h-4.679a.68.68 0 010-1.361h4.679a.68.68 0 010 1.36zm-1.957 10.207h-2.722a.68.68 0 010-1.36h2.722a.68.68 0 010 1.36zm-1.02 8.847a.68.68 0 010 1.36h-1.702a.68.68 0 010-1.36h1.701z"/></symbol><symbol id="icon-truck" viewBox="0 0 38 30"><path d="M30.888 23.02a3.353 3.353 0 000 6.704 3.354 3.354 0 000-6.705zM8.321 23.02a3.353 3.353 0 000 6.704 3.354 3.354 0 000-6.705zM32.777 8.938a1.302 1.302 0 00-1.236-.892h-1.582v5.565h4.366l-1.548-4.673zM36.97 15.694H29.96v5.324a5.44 5.44 0 016.327 4.772h.245c.718 0 1.301-.583 1.301-1.302v-7.57a1.3 1.3 0 00-.862-1.224z"/><path d="M27.826 1.891c0-.72-.582-1.302-1.3-1.302H1.422c-.718 0-1.3.583-1.3 1.302v22.597c0 .72.582 1.302 1.3 1.302h1.498a5.44 5.44 0 015.399-4.854c2.797 0 5.106 2.13 5.397 4.854H25.49a5.44 5.44 0 012.387-3.937l-.05-19.962z"/></symbol><symbol id="icon-vacanсy" viewBox="0 0 14 14"><path d="M13.545 11.45l-2.273-2.27a1.46 1.46 0 00-1.042-.43c-.26 0-.51.069-.73.196l-.733-.733c.746-.871 1.198-2.001 1.198-3.233A4.982 4.982 0 000 4.977a4.988 4.988 0 004.983 4.98 4.966 4.966 0 003.235-1.196l.733.733a1.463 1.463 0 00.24 1.77l2.304 2.303c.675.676 1.706.45 2.18-.104.482-.574.419-1.464-.13-2.012zM4.983 9.18a4.178 4.178 0 01-2.72-1.003A2.869 2.869 0 013.875 6.41l.782 1.202a.39.39 0 00.65 0l.784-1.202c.766.323 1.358.97 1.612 1.767a4.193 4.193 0 01-2.72 1.003zm1.063-3.613a.387.387 0 00-.438.16l-.625.959-.623-.96a.387.387 0 00-.438-.159 3.65 3.65 0 00-2.255 1.984A4.166 4.166 0 01.901 5.97h.56a.388.388 0 100-.777H.783C.78 5.12.777 5.05.777 4.974c0-.19.014-.377.039-.559H2.43a.388.388 0 100-.777H.998A4.212 4.212 0 014.983.774a4.21 4.21 0 014.205 4.203c0 .97-.333 1.866-.887 2.577a3.653 3.653 0 00-2.255-1.987zm7.028 7.397c-.267.3-.769.309-1.028.052l-2.304-2.304c-.256-.256-.322-.661 0-.98.342-.343.775-.208.981 0l2.274 2.27c.267.267.311.697.077.962z"/><path d="M4.983 1.466c-.973 0-1.764.79-1.764 1.764 0 .972.79 1.763 1.764 1.763.973 0 1.764-.79 1.764-1.763 0-.973-.791-1.764-1.764-1.764zm0 2.747a.987.987 0 01-.987-.983c0-.543.441-.984.987-.984.545 0 .986.44.986.984a.987.987 0 01-.986.983z"/></symbol><symbol id="icon-warn" viewBox="0 0 65.719 58.312"><path d="M29.105 36.106a1.224 1.224 0 001.367 1.253h4.785a1.2 1.2 0 00.855-.4 1.844 1.844 0 00.512-.854l.684-12.761a1.765 1.765 0 00-.171-.8 1.215 1.215 0 00-.456-.513 1.427 1.427 0 00-.74-.171h-6.153a1.416 1.416 0 00-1.025.456 1.082 1.082 0 00-.342 1.025zm3.759 2.848a4.866 4.866 0 103.361 1.424 4.6 4.6 0 00-3.361-1.424zm0-38.965a5.193 5.193 0 00-4.785 2.735L.736 50.124a5.331 5.331 0 00.056 5.468 5.07 5.07 0 004.729 2.735h54.687a5.07 5.07 0 004.73-2.739 5.329 5.329 0 00.057-5.468L37.652 2.72a5.2 5.2 0 00-4.788-2.731zm-.569 6.494a.646.646 0 011.139 0l26.204 45.348a.572.572 0 010 .683.672.672 0 01-.57.342H6.66q-1.14 0-.57-1.025z" fill-rule="evenodd"/></symbol><symbol id="icon-zoom" viewBox="0 0 21 21"><path d="M14.085 2.42c-3.217-3.216-8.452-3.216-11.67 0-3.217 3.218-3.217 8.453 0 11.67 2.73 2.73 6.79 3.143 9.96 1.241 0 0 .228-.136.413.048l4.21 4.21c.837.838 2.009 1.037 2.752.294l.128-.128c.743-.743.544-1.915-.294-2.752l-4.201-4.201c-.194-.194-.057-.423-.057-.423 1.901-3.17 1.488-7.229-1.241-9.958zM12.56 12.568a6.104 6.104 0 01-8.622 0 6.104 6.104 0 010-8.623 6.104 6.104 0 018.622 0 6.104 6.104 0 010 8.623z"/><path d="M7.76 12.04a.85.85 0 01-1.183.785A5.367 5.367 0 013.73 5.798a.852.852 0 011.569.664 3.662 3.662 0 001.943 4.794c.325.137.52.453.52.785z"/></symbol> <view id="icon-arrow-view-grey" viewBox="0 0 14 24"/><view id="icon-arrow-view-green" viewBox="0 34 14 24"/><view id="icon-arrow-view-light" viewBox="0 68 14 24"/><view id="icon-arrow-view-white" viewBox="0 102 14 24"/><view id="icon-arrow_down-view-grey" viewBox="0 136 16 8"/><view id="icon-arrow_down-view-green" viewBox="0 154 16 8"/><view id="icon-arrow_down-view-light" viewBox="0 172 16 8"/><view id="icon-arrow_down-view-white" viewBox="0 190 16 8"/><view id="icon-arrow_left-view-grey" viewBox="0 208 14 24"/><view id="icon-arrow_left-view-green" viewBox="0 242 14 24"/><view id="icon-arrow_left-view-light" viewBox="0 276 14 24"/><view id="icon-arrow_left-view-white" viewBox="0 310 14 24"/><view id="icon-basket-view-grey" viewBox="0 344 23 23"/><view id="icon-basket-view-green" viewBox="0 377 23 23"/><view id="icon-basket-view-light" viewBox="0 410 23 23"/><view id="icon-basket-view-white" viewBox="0 443 23 23"/><view id="icon-calendar-view-grey" viewBox="0 476 15 15"/><view id="icon-calendar-view-green" viewBox="0 501 15 15"/><view id="icon-calendar-view-light" viewBox="0 526 15 15"/><view id="icon-calendar-view-white" viewBox="0 551 15 15"/><view id="icon-cart-view-grey" viewBox="0 576 32 31"/><view id="icon-cart-view-green" viewBox="0 617 32 31"/><view id="icon-cart-view-light" viewBox="0 658 32 31"/><view id="icon-cart-view-white" viewBox="0 699 32 31"/><view id="icon-close-view-grey" viewBox="0 740 23 23"/><view id="icon-close-view-green" viewBox="0 773 23 23"/><view id="icon-close-view-light" viewBox="0 806 23 23"/><view id="icon-close-view-white" viewBox="0 839 23 23"/><view id="icon-data-view-grey" viewBox="0 872 42 38"/><view id="icon-data-view-green" viewBox="0 920 42 38"/><view id="icon-data-view-light" viewBox="0 968 42 38"/><view id="icon-data-view-white" viewBox="0 1016 42 38"/><view id="icon-delivery-view-grey" viewBox="0 1064 16 14"/><view id="icon-delivery-view-green" viewBox="0 1088 16 14"/><view id="icon-delivery-view-light" viewBox="0 1112 16 14"/><view id="icon-delivery-view-white" viewBox="0 1136 16 14"/><view id="icon-dessert-view-grey" viewBox="0 1160 13 17"/><view id="icon-dessert-view-green" viewBox="0 1187 13 17"/><view id="icon-dessert-view-light" viewBox="0 1214 13 17"/><view id="icon-dessert-view-white" viewBox="0 1241 13 17"/><view id="icon-drink-view-grey" viewBox="0 1268 11 19"/><view id="icon-drink-view-green" viewBox="0 1297 11 19"/><view id="icon-drink-view-light" viewBox="0 1326 11 19"/><view id="icon-drink-view-white" viewBox="0 1355 11 19"/><view id="icon-env-view-grey" viewBox="0 1384 35 29"/><view id="icon-env-view-green" viewBox="0 1423 35 29"/><view id="icon-env-view-light" viewBox="0 1462 35 29"/><view id="icon-env-view-white" viewBox="0 1501 35 29"/><view id="icon-garnish-view-grey" viewBox="0 1540 15 17"/><view id="icon-garnish-view-green" viewBox="0 1567 15 17"/><view id="icon-garnish-view-light" viewBox="0 1594 15 17"/><view id="icon-garnish-view-white" viewBox="0 1621 15 17"/><view id="icon-hach-view-grey" viewBox="0 1648 17 11"/><view id="icon-hach-view-green" viewBox="0 1669 17 11"/><view id="icon-hach-view-light" viewBox="0 1690 17 11"/><view id="icon-hach-view-white" viewBox="0 1711 17 11"/><view id="icon-helpdesk-view-grey" viewBox="0 1732 15 14"/><view id="icon-helpdesk-view-green" viewBox="0 1756 15 14"/><view id="icon-helpdesk-view-light" viewBox="0 1780 15 14"/><view id="icon-helpdesk-view-white" viewBox="0 1804 15 14"/><view id="icon-hink-view-grey" viewBox="0 1828 18 16"/><view id="icon-hink-view-green" viewBox="0 1854 18 16"/><view id="icon-hink-view-light" viewBox="0 1880 18 16"/><view id="icon-hink-view-white" viewBox="0 1906 18 16"/><view id="icon-home-view-grey" viewBox="0 1932 22 21"/><view id="icon-home-view-green" viewBox="0 1963 22 21"/><view id="icon-home-view-light" viewBox="0 1994 22 21"/><view id="icon-home-view-white" viewBox="0 2025 22 21"/><view id="icon-hot-view-grey" viewBox="0 2056 19 17"/><view id="icon-hot-view-green" viewBox="0 2083 19 17"/><view id="icon-hot-view-light" viewBox="0 2110 19 17"/><view id="icon-hot-view-white" viewBox="0 2137 19 17"/><view id="icon-image-view-grey" viewBox="0 2164 76 58"/><view id="icon-image-view-green" viewBox="0 2232 76 58"/><view id="icon-image-view-light" viewBox="0 2300 76 58"/><view id="icon-image-view-white" viewBox="0 2368 76 58"/><view id="icon-key-view-grey" viewBox="0 2436 14 14"/><view id="icon-key-view-green" viewBox="0 2460 14 14"/><view id="icon-key-view-light" viewBox="0 2484 14 14"/><view id="icon-key-view-white" viewBox="0 2508 14 14"/><view id="icon-long-arr-view-grey" viewBox="0 2532 20 15"/><view id="icon-long-arr-view-green" viewBox="0 2557 20 15"/><view id="icon-long-arr-view-light" viewBox="0 2582 20 15"/><view id="icon-long-arr-view-white" viewBox="0 2607 20 15"/><view id="icon-menu-view-grey" viewBox="0 2632 18 14"/><view id="icon-menu-view-green" viewBox="0 2656 18 14"/><view id="icon-menu-view-light" viewBox="0 2680 18 14"/><view id="icon-menu-view-white" viewBox="0 2704 18 14"/><view id="icon-msg-view-grey" viewBox="0 2728 7 7"/><view id="icon-msg-view-green" viewBox="0 2745 7 7"/><view id="icon-msg-view-light" viewBox="0 2762 7 7"/><view id="icon-msg-view-white" viewBox="0 2779 7 7"/><view id="icon-navi-view-grey" viewBox="0 2796 23 13"/><view id="icon-navi-view-green" viewBox="0 2819 23 13"/><view id="icon-navi-view-light" viewBox="0 2842 23 13"/><view id="icon-navi-view-white" viewBox="0 2865 23 13"/><view id="icon-payment-view-grey" viewBox="0 2888 16 11"/><view id="icon-payment-view-green" viewBox="0 2909 16 11"/><view id="icon-payment-view-light" viewBox="0 2930 16 11"/><view id="icon-payment-view-white" viewBox="0 2951 16 11"/><view id="icon-person-view-grey" viewBox="0 2972 31 31"/><view id="icon-person-view-green" viewBox="0 3013 31 31"/><view id="icon-person-view-light" viewBox="0 3054 31 31"/><view id="icon-person-view-white" viewBox="0 3095 31 31"/><view id="icon-phone-view-grey" viewBox="0 3136 17 17"/><view id="icon-phone-view-green" viewBox="0 3163 17 17"/><view id="icon-phone-view-light" viewBox="0 3190 17 17"/><view id="icon-phone-view-white" viewBox="0 3217 17 17"/><view id="icon-pig-view-grey" viewBox="0 3244 38 44"/><view id="icon-pig-view-green" viewBox="0 3298 38 44"/><view id="icon-pig-view-light" viewBox="0 3352 38 44"/><view id="icon-pig-view-white" viewBox="0 3406 38 44"/><view id="icon-profile-view-grey" viewBox="0 3460 11 15"/><view id="icon-profile-view-green" viewBox="0 3485 11 15"/><view id="icon-profile-view-light" viewBox="0 3510 11 15"/><view id="icon-profile-view-white" viewBox="0 3535 11 15"/><view id="icon-repeat-view-grey" viewBox="0 3560 17 14"/><view id="icon-repeat-view-green" viewBox="0 3584 17 14"/><view id="icon-repeat-view-light" viewBox="0 3608 17 14"/><view id="icon-repeat-view-white" viewBox="0 3632 17 14"/><view id="icon-salad-view-grey" viewBox="0 3656 17 16"/><view id="icon-salad-view-green" viewBox="0 3682 17 16"/><view id="icon-salad-view-light" viewBox="0 3708 17 16"/><view id="icon-salad-view-white" viewBox="0 3734 17 16"/><view id="icon-sauce-view-grey" viewBox="0 3760 17 10"/><view id="icon-sauce-view-green" viewBox="0 3780 17 10"/><view id="icon-sauce-view-light" viewBox="0 3800 17 10"/><view id="icon-sauce-view-white" viewBox="0 3820 17 10"/><view id="icon-shash-view-grey" viewBox="0 3840 17 19"/><view id="icon-shash-view-green" viewBox="0 3869 17 19"/><view id="icon-shash-view-light" viewBox="0 3898 17 19"/><view id="icon-shash-view-white" viewBox="0 3927 17 19"/><view id="icon-snack-view-grey" viewBox="0 3956 18 18"/><view id="icon-snack-view-green" viewBox="0 3984 18 18"/><view id="icon-snack-view-light" viewBox="0 4012 18 18"/><view id="icon-snack-view-white" viewBox="0 4040 18 18"/><view id="icon-soup-view-grey" viewBox="0 4068 17 16"/><view id="icon-soup-view-green" viewBox="0 4094 17 16"/><view id="icon-soup-view-light" viewBox="0 4120 17 16"/><view id="icon-soup-view-white" viewBox="0 4146 17 16"/><view id="icon-star-view-grey" viewBox="0 4172 13 13"/><view id="icon-star-view-green" viewBox="0 4195 13 13"/><view id="icon-star-view-light" viewBox="0 4218 13 13"/><view id="icon-star-view-white" viewBox="0 4241 13 13"/><view id="icon-story-view-grey" viewBox="0 4264 38 42"/><view id="icon-story-view-green" viewBox="0 4316 38 42"/><view id="icon-story-view-light" viewBox="0 4368 38 42"/><view id="icon-story-view-white" viewBox="0 4420 38 42"/><view id="icon-truck-view-grey" viewBox="0 4472 38 30"/><view id="icon-truck-view-green" viewBox="0 4512 38 30"/><view id="icon-truck-view-light" viewBox="0 4552 38 30"/><view id="icon-truck-view-white" viewBox="0 4592 38 30"/><view id="icon-vacanсy-view-grey" viewBox="0 4632 14 14"/><view id="icon-vacanсy-view-green" viewBox="0 4656 14 14"/><view id="icon-vacanсy-view-light" viewBox="0 4680 14 14"/><view id="icon-vacanсy-view-white" viewBox="0 4704 14 14"/><view id="icon-warn-view-grey" viewBox="0 4728 65.719 58.312"/><view id="icon-warn-view-green" viewBox="0 4796.312 65.719 58.312"/><view id="icon-warn-view-light" viewBox="0 4864.624 65.719 58.312"/><view id="icon-warn-view-white" viewBox="0 4932.936 65.719 58.312"/><view id="icon-zoom-view-grey" viewBox="0 5001.248 21 21"/><view id="icon-zoom-view-green" viewBox="0 5032.248 21 21"/><view id="icon-zoom-view-light" viewBox="0 5063.248 21 21"/><view id="icon-zoom-view-white" viewBox="0 5094.248 21 21"/> <use xlink:href="#icon-arrow" x="0" y="0" width="14" height="24" style="fill:#343E48"/><use xlink:href="#icon-arrow" x="0" y="34" width="14" height="24" style="fill:#00AC4E"/><use xlink:href="#icon-arrow" x="0" y="68" width="14" height="24" style="fill:#C6C6C6"/><use xlink:href="#icon-arrow" x="0" y="102" width="14" height="24" style="fill:#ffffff"/><use xlink:href="#icon-arrow_down" x="0" y="136" width="16" height="8" style="fill:#343E48"/><use xlink:href="#icon-arrow_down" x="0" y="154" width="16" height="8" style="fill:#00AC4E"/><use xlink:href="#icon-arrow_down" x="0" y="172" width="16" height="8" style="fill:#C6C6C6"/><use xlink:href="#icon-arrow_down" x="0" y="190" width="16" height="8" style="fill:#ffffff"/><use xlink:href="#icon-arrow_left" x="0" y="208" width="14" height="24" style="fill:#343E48"/><use xlink:href="#icon-arrow_left" x="0" y="242" width="14" height="24" style="fill:#00AC4E"/><use xlink:href="#icon-arrow_left" x="0" y="276" width="14" height="24" style="fill:#C6C6C6"/><use xlink:href="#icon-arrow_left" x="0" y="310" width="14" height="24" style="fill:#ffffff"/><use xlink:href="#icon-basket" x="0" y="344" width="23" height="23" style="fill:#343E48"/><use xlink:href="#icon-basket" x="0" y="377" width="23" height="23" style="fill:#00AC4E"/><use xlink:href="#icon-basket" x="0" y="410" width="23" height="23" style="fill:#C6C6C6"/><use xlink:href="#icon-basket" x="0" y="443" width="23" height="23" style="fill:#ffffff"/><use xlink:href="#icon-calendar" x="0" y="476" width="15" height="15" style="fill:#343E48"/><use xlink:href="#icon-calendar" x="0" y="501" width="15" height="15" style="fill:#00AC4E"/><use xlink:href="#icon-calendar" x="0" y="526" width="15" height="15" style="fill:#C6C6C6"/><use xlink:href="#icon-calendar" x="0" y="551" width="15" height="15" style="fill:#ffffff"/><use xlink:href="#icon-cart" x="0" y="576" width="32" height="31" style="fill:#343E48"/><use xlink:href="#icon-cart" x="0" y="617" width="32" height="31" style="fill:#00AC4E"/><use xlink:href="#icon-cart" x="0" y="658" width="32" height="31" style="fill:#C6C6C6"/><use xlink:href="#icon-cart" x="0" y="699" width="32" height="31" style="fill:#ffffff"/><use xlink:href="#icon-close" x="0" y="740" width="23" height="23" style="fill:#343E48"/><use xlink:href="#icon-close" x="0" y="773" width="23" height="23" style="fill:#00AC4E"/><use xlink:href="#icon-close" x="0" y="806" width="23" height="23" style="fill:#C6C6C6"/><use xlink:href="#icon-close" x="0" y="839" width="23" height="23" style="fill:#ffffff"/><use xlink:href="#icon-data" x="0" y="872" width="42" height="38" style="fill:#343E48"/><use xlink:href="#icon-data" x="0" y="920" width="42" height="38" style="fill:#00AC4E"/><use xlink:href="#icon-data" x="0" y="968" width="42" height="38" style="fill:#C6C6C6"/><use xlink:href="#icon-data" x="0" y="1016" width="42" height="38" style="fill:#ffffff"/><use xlink:href="#icon-delivery" x="0" y="1064" width="16" height="14" style="fill:#343E48"/><use xlink:href="#icon-delivery" x="0" y="1088" width="16" height="14" style="fill:#00AC4E"/><use xlink:href="#icon-delivery" x="0" y="1112" width="16" height="14" style="fill:#C6C6C6"/><use xlink:href="#icon-delivery" x="0" y="1136" width="16" height="14" style="fill:#ffffff"/><use xlink:href="#icon-dessert" x="0" y="1160" width="13" height="17" style="fill:#343E48"/><use xlink:href="#icon-dessert" x="0" y="1187" width="13" height="17" style="fill:#00AC4E"/><use xlink:href="#icon-dessert" x="0" y="1214" width="13" height="17" style="fill:#C6C6C6"/><use xlink:href="#icon-dessert" x="0" y="1241" width="13" height="17" style="fill:#ffffff"/><use xlink:href="#icon-drink" x="0" y="1268" width="11" height="19" style="fill:#343E48"/><use xlink:href="#icon-drink" x="0" y="1297" width="11" height="19" style="fill:#00AC4E"/><use xlink:href="#icon-drink" x="0" y="1326" width="11" height="19" style="fill:#C6C6C6"/><use xlink:href="#icon-drink" x="0" y="1355" width="11" height="19" style="fill:#ffffff"/><use xlink:href="#icon-env" x="0" y="1384" width="35" height="29" style="fill:#343E48"/><use xlink:href="#icon-env" x="0" y="1423" width="35" height="29" style="fill:#00AC4E"/><use xlink:href="#icon-env" x="0" y="1462" width="35" height="29" style="fill:#C6C6C6"/><use xlink:href="#icon-env" x="0" y="1501" width="35" height="29" style="fill:#ffffff"/><use xlink:href="#icon-garnish" x="0" y="1540" width="15" height="17" style="fill:#343E48"/><use xlink:href="#icon-garnish" x="0" y="1567" width="15" height="17" style="fill:#00AC4E"/><use xlink:href="#icon-garnish" x="0" y="1594" width="15" height="17" style="fill:#C6C6C6"/><use xlink:href="#icon-garnish" x="0" y="1621" width="15" height="17" style="fill:#ffffff"/><use xlink:href="#icon-hach" x="0" y="1648" width="17" height="11" style="fill:#343E48"/><use xlink:href="#icon-hach" x="0" y="1669" width="17" height="11" style="fill:#00AC4E"/><use xlink:href="#icon-hach" x="0" y="1690" width="17" height="11" style="fill:#C6C6C6"/><use xlink:href="#icon-hach" x="0" y="1711" width="17" height="11" style="fill:#ffffff"/><use xlink:href="#icon-helpdesk" x="0" y="1732" width="15" height="14" style="fill:#343E48"/><use xlink:href="#icon-helpdesk" x="0" y="1756" width="15" height="14" style="fill:#00AC4E"/><use xlink:href="#icon-helpdesk" x="0" y="1780" width="15" height="14" style="fill:#C6C6C6"/><use xlink:href="#icon-helpdesk" x="0" y="1804" width="15" height="14" style="fill:#ffffff"/><use xlink:href="#icon-hink" x="0" y="1828" width="18" height="16" style="fill:#343E48"/><use xlink:href="#icon-hink" x="0" y="1854" width="18" height="16" style="fill:#00AC4E"/><use xlink:href="#icon-hink" x="0" y="1880" width="18" height="16" style="fill:#C6C6C6"/><use xlink:href="#icon-hink" x="0" y="1906" width="18" height="16" style="fill:#ffffff"/><use xlink:href="#icon-home" x="0" y="1932" width="22" height="21" style="fill:#343E48"/><use xlink:href="#icon-home" x="0" y="1963" width="22" height="21" style="fill:#00AC4E"/><use xlink:href="#icon-home" x="0" y="1994" width="22" height="21" style="fill:#C6C6C6"/><use xlink:href="#icon-home" x="0" y="2025" width="22" height="21" style="fill:#ffffff"/><use xlink:href="#icon-hot" x="0" y="2056" width="19" height="17" style="fill:#343E48"/><use xlink:href="#icon-hot" x="0" y="2083" width="19" height="17" style="fill:#00AC4E"/><use xlink:href="#icon-hot" x="0" y="2110" width="19" height="17" style="fill:#C6C6C6"/><use xlink:href="#icon-hot" x="0" y="2137" width="19" height="17" style="fill:#ffffff"/><use xlink:href="#icon-image" x="0" y="2164" width="76" height="58" style="fill:#343E48"/><use xlink:href="#icon-image" x="0" y="2232" width="76" height="58" style="fill:#00AC4E"/><use xlink:href="#icon-image" x="0" y="2300" width="76" height="58" style="fill:#C6C6C6"/><use xlink:href="#icon-image" x="0" y="2368" width="76" height="58" style="fill:#ffffff"/><use xlink:href="#icon-key" x="0" y="2436" width="14" height="14" style="fill:#343E48"/><use xlink:href="#icon-key" x="0" y="2460" width="14" height="14" style="fill:#00AC4E"/><use xlink:href="#icon-key" x="0" y="2484" width="14" height="14" style="fill:#C6C6C6"/><use xlink:href="#icon-key" x="0" y="2508" width="14" height="14" style="fill:#ffffff"/><use xlink:href="#icon-long-arr" x="0" y="2532" width="20" height="15" style="fill:#343E48"/><use xlink:href="#icon-long-arr" x="0" y="2557" width="20" height="15" style="fill:#00AC4E"/><use xlink:href="#icon-long-arr" x="0" y="2582" width="20" height="15" style="fill:#C6C6C6"/><use xlink:href="#icon-long-arr" x="0" y="2607" width="20" height="15" style="fill:#ffffff"/><use xlink:href="#icon-menu" x="0" y="2632" width="18" height="14" style="fill:#343E48"/><use xlink:href="#icon-menu" x="0" y="2656" width="18" height="14" style="fill:#00AC4E"/><use xlink:href="#icon-menu" x="0" y="2680" width="18" height="14" style="fill:#C6C6C6"/><use xlink:href="#icon-menu" x="0" y="2704" width="18" height="14" style="fill:#ffffff"/><use xlink:href="#icon-msg" x="0" y="2728" width="7" height="7" style="fill:#343E48"/><use xlink:href="#icon-msg" x="0" y="2745" width="7" height="7" style="fill:#00AC4E"/><use xlink:href="#icon-msg" x="0" y="2762" width="7" height="7" style="fill:#C6C6C6"/><use xlink:href="#icon-msg" x="0" y="2779" width="7" height="7" style="fill:#ffffff"/><use xlink:href="#icon-navi" x="0" y="2796" width="23" height="13" style="fill:#343E48"/><use xlink:href="#icon-navi" x="0" y="2819" width="23" height="13" style="fill:#00AC4E"/><use xlink:href="#icon-navi" x="0" y="2842" width="23" height="13" style="fill:#C6C6C6"/><use xlink:href="#icon-navi" x="0" y="2865" width="23" height="13" style="fill:#ffffff"/><use xlink:href="#icon-payment" x="0" y="2888" width="16" height="11" style="fill:#343E48"/><use xlink:href="#icon-payment" x="0" y="2909" width="16" height="11" style="fill:#00AC4E"/><use xlink:href="#icon-payment" x="0" y="2930" width="16" height="11" style="fill:#C6C6C6"/><use xlink:href="#icon-payment" x="0" y="2951" width="16" height="11" style="fill:#ffffff"/><use xlink:href="#icon-person" x="0" y="2972" width="31" height="31" style="fill:#343E48"/><use xlink:href="#icon-person" x="0" y="3013" width="31" height="31" style="fill:#00AC4E"/><use xlink:href="#icon-person" x="0" y="3054" width="31" height="31" style="fill:#C6C6C6"/><use xlink:href="#icon-person" x="0" y="3095" width="31" height="31" style="fill:#ffffff"/><use xlink:href="#icon-phone" x="0" y="3136" width="17" height="17" style="fill:#343E48"/><use xlink:href="#icon-phone" x="0" y="3163" width="17" height="17" style="fill:#00AC4E"/><use xlink:href="#icon-phone" x="0" y="3190" width="17" height="17" style="fill:#C6C6C6"/><use xlink:href="#icon-phone" x="0" y="3217" width="17" height="17" style="fill:#ffffff"/><use xlink:href="#icon-pig" x="0" y="3244" width="38" height="44" style="fill:#343E48"/><use xlink:href="#icon-pig" x="0" y="3298" width="38" height="44" style="fill:#00AC4E"/><use xlink:href="#icon-pig" x="0" y="3352" width="38" height="44" style="fill:#C6C6C6"/><use xlink:href="#icon-pig" x="0" y="3406" width="38" height="44" style="fill:#ffffff"/><use xlink:href="#icon-profile" x="0" y="3460" width="11" height="15" style="fill:#343E48"/><use xlink:href="#icon-profile" x="0" y="3485" width="11" height="15" style="fill:#00AC4E"/><use xlink:href="#icon-profile" x="0" y="3510" width="11" height="15" style="fill:#C6C6C6"/><use xlink:href="#icon-profile" x="0" y="3535" width="11" height="15" style="fill:#ffffff"/><use xlink:href="#icon-repeat" x="0" y="3560" width="17" height="14" style="fill:#343E48"/><use xlink:href="#icon-repeat" x="0" y="3584" width="17" height="14" style="fill:#00AC4E"/><use xlink:href="#icon-repeat" x="0" y="3608" width="17" height="14" style="fill:#C6C6C6"/><use xlink:href="#icon-repeat" x="0" y="3632" width="17" height="14" style="fill:#ffffff"/><use xlink:href="#icon-salad" x="0" y="3656" width="17" height="16" style="fill:#343E48"/><use xlink:href="#icon-salad" x="0" y="3682" width="17" height="16" style="fill:#00AC4E"/><use xlink:href="#icon-salad" x="0" y="3708" width="17" height="16" style="fill:#C6C6C6"/><use xlink:href="#icon-salad" x="0" y="3734" width="17" height="16" style="fill:#ffffff"/><use xlink:href="#icon-sauce" x="0" y="3760" width="17" height="10" style="fill:#343E48"/><use xlink:href="#icon-sauce" x="0" y="3780" width="17" height="10" style="fill:#00AC4E"/><use xlink:href="#icon-sauce" x="0" y="3800" width="17" height="10" style="fill:#C6C6C6"/><use xlink:href="#icon-sauce" x="0" y="3820" width="17" height="10" style="fill:#ffffff"/><use xlink:href="#icon-shash" x="0" y="3840" width="17" height="19" style="fill:#343E48"/><use xlink:href="#icon-shash" x="0" y="3869" width="17" height="19" style="fill:#00AC4E"/><use xlink:href="#icon-shash" x="0" y="3898" width="17" height="19" style="fill:#C6C6C6"/><use xlink:href="#icon-shash" x="0" y="3927" width="17" height="19" style="fill:#ffffff"/><use xlink:href="#icon-snack" x="0" y="3956" width="18" height="18" style="fill:#343E48"/><use xlink:href="#icon-snack" x="0" y="3984" width="18" height="18" style="fill:#00AC4E"/><use xlink:href="#icon-snack" x="0" y="4012" width="18" height="18" style="fill:#C6C6C6"/><use xlink:href="#icon-snack" x="0" y="4040" width="18" height="18" style="fill:#ffffff"/><use xlink:href="#icon-soup" x="0" y="4068" width="17" height="16" style="fill:#343E48"/><use xlink:href="#icon-soup" x="0" y="4094" width="17" height="16" style="fill:#00AC4E"/><use xlink:href="#icon-soup" x="0" y="4120" width="17" height="16" style="fill:#C6C6C6"/><use xlink:href="#icon-soup" x="0" y="4146" width="17" height="16" style="fill:#ffffff"/><use xlink:href="#icon-star" x="0" y="4172" width="13" height="13" style="fill:#343E48"/><use xlink:href="#icon-star" x="0" y="4195" width="13" height="13" style="fill:#00AC4E"/><use xlink:href="#icon-star" x="0" y="4218" width="13" height="13" style="fill:#C6C6C6"/><use xlink:href="#icon-star" x="0" y="4241" width="13" height="13" style="fill:#ffffff"/><use xlink:href="#icon-story" x="0" y="4264" width="38" height="42" style="fill:#343E48"/><use xlink:href="#icon-story" x="0" y="4316" width="38" height="42" style="fill:#00AC4E"/><use xlink:href="#icon-story" x="0" y="4368" width="38" height="42" style="fill:#C6C6C6"/><use xlink:href="#icon-story" x="0" y="4420" width="38" height="42" style="fill:#ffffff"/><use xlink:href="#icon-truck" x="0" y="4472" width="38" height="30" style="fill:#343E48"/><use xlink:href="#icon-truck" x="0" y="4512" width="38" height="30" style="fill:#00AC4E"/><use xlink:href="#icon-truck" x="0" y="4552" width="38" height="30" style="fill:#C6C6C6"/><use xlink:href="#icon-truck" x="0" y="4592" width="38" height="30" style="fill:#ffffff"/><use xlink:href="#icon-vacanсy" x="0" y="4632" width="14" height="14" style="fill:#343E48"/><use xlink:href="#icon-vacanсy" x="0" y="4656" width="14" height="14" style="fill:#00AC4E"/><use xlink:href="#icon-vacanсy" x="0" y="4680" width="14" height="14" style="fill:#C6C6C6"/><use xlink:href="#icon-vacanсy" x="0" y="4704" width="14" height="14" style="fill:#ffffff"/><use xlink:href="#icon-warn" x="0" y="4728" width="65.719" height="58.312" style="fill:#343E48"/><use xlink:href="#icon-warn" x="0" y="4796.312" width="65.719" height="58.312" style="fill:#00AC4E"/><use xlink:href="#icon-warn" x="0" y="4864.624" width="65.719" height="58.312" style="fill:#C6C6C6"/><use xlink:href="#icon-warn" x="0" y="4932.936" width="65.719" height="58.312" style="fill:#ffffff"/><use xlink:href="#icon-zoom" x="0" y="5001.248" width="21" height="21" style="fill:#343E48"/><use xlink:href="#icon-zoom" x="0" y="5032.248" width="21" height="21" style="fill:#00AC4E"/><use xlink:href="#icon-zoom" x="0" y="5063.248" width="21" height="21" style="fill:#C6C6C6"/><use xlink:href="#icon-zoom" x="0" y="5094.248" width="21" height="21" style="fill:#ffffff"/></svg>